<svg width="1134" height="1134" xmlns="http://www.w3.org/2000/svg" xmlns:xlink="http://www.w3.org/1999/xlink" overflow="hidden"><g><rect x="0" y="0" width="1134" height="1134"/><path d="M868.219 259.875 822.15 305.944C968.625 452.419 968.625 691.031 822.15 837.506L868.219 883.575C1040.68 712.294 1040.68 432.338 868.219 259.875Z" fill="#FFFFFF"/><path d="M774.9 352.013 728.831 398.081C824.513 493.763 824.513 648.506 728.831 745.369L774.9 791.438C896.569 669.769 896.569 473.681 774.9 352.013Z" fill="#FFFFFF"/><path d="M683.944 446.513 637.875 492.581C682.763 537.469 682.763 609.525 637.875 654.413L683.944 700.481C754.819 629.606 754.819 516.206 683.944 446.513Z" fill="#FFFFFF"/><path d="M41.3438 408.713 41.3438 725.288 270.506 725.288 567 968.625 567 165.375 270.506 408.713Z" fill="#FFFFFF"/></g></svg>