<svg width="1083" height="363" xmlns="http://www.w3.org/2000/svg" xmlns:xlink="http://www.w3.org/1999/xlink" overflow="hidden"><defs><clipPath id="clip0"><rect x="0" y="0" width="1083" height="363"/></clipPath></defs><g clip-path="url(#clip0)"><rect x="0" y="0" width="1083" height="363.279"/><path d="M20.5 40.2791C20.5 28.8114 29.7893 19.515 41.2483 19.515L1042.75 19.515C1054.21 19.515 1063.5 28.8114 1063.5 40.2791L1063.5 324C1063.5 335.468 1054.21 344.764 1042.75 344.764L41.2483 344.764C29.7893 344.764 20.5 335.468 20.5 324Z" stroke="#FFFFFF" stroke-width="16.6615" stroke-miterlimit="8" fill="none" fill-rule="evenodd"/><path d="M259.016 181.2C263.32 181.872 267.625 182.544 271.929 183.215 271.764 192.042 270.625 204.18 268.515 219.628 266.404 235.076 264.107 246.59 261.623 254.17 257.36 252.059 253.097 249.948 248.834 247.837 254.546 227.304 257.94 205.092 259.016 181.2ZM59.4768 180.768C59.4768 199.191 59.4768 217.613 59.4768 236.035 99.4177 236.035 139.359 236.035 179.299 236.035 179.299 217.613 179.299 199.191 179.299 180.768 139.359 180.768 99.4177 180.768 59.4768 180.768ZM291.672 179.617C292.624 197.176 293.576 214.734 294.528 232.293 291.051 232.773 287.574 233.253 284.098 233.732 283.146 216.222 282.194 198.711 281.242 181.2 284.719 180.672 288.195 180.145 291.672 179.617ZM310.546 175.443C312.739 190.555 314.933 205.667 317.127 220.779 313.898 221.307 310.67 221.835 307.441 222.362 305.372 207.346 303.302 192.33 301.233 177.314 304.337 176.691 307.441 176.067 310.546 175.443ZM328.178 171.269C330.288 183.071 332.399 194.873 334.51 206.675 331.737 207.394 328.964 208.114 326.191 208.834 324.121 196.984 322.052 185.134 319.982 173.284 322.714 172.613 325.446 171.941 328.178 171.269ZM591.167 170.694C637.068 170.694 682.968 170.694 728.869 170.694 728.869 176.547 728.869 182.4 728.869 188.252 710.534 188.252 692.198 188.252 673.863 188.252 673.863 206.387 673.863 224.521 673.863 242.656 673.863 249.18 671.545 254.553 666.909 258.775 662.273 262.997 656.645 265.108 650.022 265.108 639.385 265.108 628.748 265.108 618.111 265.108 617.325 258.631 616.538 252.155 615.752 245.678 625.023 245.678 634.294 245.678 643.565 245.678 646.214 245.678 648.594 244.695 650.705 242.728 652.816 240.761 653.871 238.242 653.871 235.172 653.871 219.532 653.871 203.892 653.871 188.252 632.97 188.252 612.068 188.252 591.167 188.252 591.167 182.4 591.167 176.547 591.167 170.694ZM574.528 130.827C631.687 130.827 688.846 130.827 746.004 130.827 746.004 144.835 746.004 158.844 746.004 172.853 740.376 172.853 734.747 172.853 729.118 172.853 729.118 164.361 729.118 155.87 729.118 147.378 683.051 147.378 636.985 147.378 590.918 147.378 590.918 155.87 590.918 164.361 590.918 172.853 585.455 172.853 579.991 172.853 574.528 172.853 574.528 158.844 574.528 144.835 574.528 130.827ZM889.792 130.683C889.792 140.422 889.792 150.161 889.792 159.899 912.183 159.899 934.575 159.899 956.967 159.899 956.967 150.161 956.967 140.422 956.967 130.683 934.575 130.683 912.183 130.683 889.792 130.683ZM805.233 130.683C805.233 140.422 805.233 150.161 805.233 159.899 826.838 159.899 848.444 159.899 870.049 159.899 870.049 150.161 870.049 140.422 870.049 130.683 848.444 130.683 826.838 130.683 805.233 130.683ZM121.934 124.206C102.481 139.174 77.6882 152.176 47.5566 163.21 97.9277 163.21 148.299 163.21 198.67 163.21 169.283 152.847 143.704 139.846 121.934 124.206ZM281.49 117.154C281.49 126.653 281.49 136.152 281.49 145.651 291.01 145.651 300.529 145.651 310.049 145.651 310.049 136.152 310.049 126.653 310.049 117.154 300.529 117.154 291.01 117.154 281.49 117.154ZM889.792 86.2104C889.792 95.7094 889.792 105.208 889.792 114.707 912.183 114.659 934.575 114.611 956.967 114.563 956.967 105.112 956.967 95.6614 956.967 86.2104 934.575 86.2104 912.183 86.2104 889.792 86.2104ZM805.233 86.2104C805.233 95.7574 805.233 105.304 805.233 114.851 826.838 114.803 848.444 114.755 870.049 114.707 870.049 105.208 870.049 95.7094 870.049 86.2104 848.444 86.2104 826.838 86.2104 805.233 86.2104ZM281.49 74.9843C281.49 83.9076 281.49 92.8309 281.49 101.754 291.01 101.754 300.529 101.754 310.049 101.754 310.049 92.8309 310.049 83.9076 310.049 74.9843 300.529 74.9843 291.01 74.9843 281.49 74.9843ZM609.792 71.818C609.792 80.0696 609.792 88.3213 609.792 96.5729 643.069 96.5729 676.346 96.5729 709.623 96.5729 709.623 88.3213 709.623 80.0696 709.623 71.818 676.346 71.818 643.069 71.818 609.792 71.818ZM591.415 57.7135C636.985 57.7135 682.555 57.7135 728.124 57.7135 728.124 75.4641 728.124 93.2147 728.124 110.965 682.555 110.965 636.985 110.965 591.415 110.965 591.415 93.2147 591.415 75.4641 591.415 57.7135ZM163.654 46.6313C134.392 46.6793 105.129 46.7273 75.867 46.7752 84.3105 65.2935 99.3763 83.14 121.064 100.315 140.6 83.3319 154.797 65.4374 163.654 46.6313ZM281.49 31.6632C281.49 41.0183 281.49 50.3733 281.49 59.7284 291.01 59.7284 300.529 59.7284 310.049 59.7284 310.049 50.3733 310.049 41.0183 310.049 31.6632 300.529 31.6632 291.01 31.6632 281.49 31.6632ZM402.43 31.3754C402.43 57.7614 402.43 84.1475 402.43 110.534 422.38 110.534 442.33 110.534 462.28 110.534 462.28 84.1475 462.28 57.7614 462.28 31.3754 442.33 31.3754 422.38 31.3754 402.43 31.3754ZM264.479 15.5438C297.135 15.5438 329.792 15.5438 362.448 15.5438 362.448 20.9169 362.448 26.2901 362.448 31.6632 350.362 31.6632 338.277 31.6632 326.191 31.6632 326.191 41.0183 326.191 50.3733 326.191 59.7284 335.876 59.7284 345.561 59.7284 355.246 59.7284 355.246 64.8137 355.246 69.899 355.246 74.9843 345.561 74.9843 335.876 74.9843 326.191 74.9843 326.191 83.9076 326.191 92.8309 326.191 101.754 336.124 101.754 346.058 101.754 355.991 101.754 355.991 106.887 355.991 112.021 355.991 117.154 346.058 117.154 336.124 117.154 326.191 117.154 326.191 126.653 326.191 136.152 326.191 145.651 337.614 145.651 349.038 145.651 360.461 145.651 360.213 176.451 359.365 200.126 357.916 216.677 356.467 233.229 354.543 243.951 352.142 248.844 349.742 253.738 346.223 257.72 341.588 260.79 336.952 263.861 330.371 265.396 321.845 265.396 315.057 265.396 308.269 265.396 301.481 265.396 300.902 259.447 300.322 253.498 299.743 247.549 313.153 247.549 321.39 247.237 324.453 246.614 327.515 245.99 330.351 244.191 332.958 241.216 335.566 238.242 337.49 234.236 338.732 229.199 339.974 224.161 340.822 216.582 341.277 206.459 341.733 196.336 341.878 181.488 341.712 161.914 321.472 161.914 301.233 161.914 280.993 161.914 280.993 163.737 280.993 165.56 280.993 167.384 275.489 167.384 269.984 167.384 264.479 167.384 264.479 116.77 264.479 66.157 264.479 15.5438ZM383.184 14.8241C415.882 14.8241 448.58 14.8241 481.277 14.8241 481.277 52.1484 481.277 89.4727 481.277 126.797 469.523 126.797 457.768 126.797 446.014 126.797 448.414 148.481 454.229 170.502 463.459 192.858 472.689 215.214 484.257 233.78 498.164 248.557 494.108 253.93 490.052 259.303 485.996 264.676 470.764 248.461 458.161 228.287 448.187 204.156 438.212 180.025 431.61 154.238 428.382 126.797 419.731 126.797 411.081 126.797 402.43 126.797 402.099 154.334 399.223 180.72 393.801 205.955 388.379 231.19 381.404 251.003 372.878 265.396 368.367 261.654 363.855 257.912 359.344 254.17 366.877 241.312 372.733 222.626 376.914 198.111 381.094 173.596 383.184 146.706 383.184 117.442 383.184 83.236 383.184 49.0301 383.184 14.8241ZM870.049 3.31022C876.63 3.31022 883.211 3.31022 889.792 3.31022 889.792 10.6983 889.792 18.0864 889.792 25.4745 924.186 25.4745 958.581 25.4745 992.976 25.4745 992.976 31.6153 992.976 37.756 992.976 43.8968 958.581 43.8968 924.186 43.8968 889.792 43.8968 889.792 52.2923 889.792 60.6879 889.792 69.0835 918.64 69.0835 947.489 69.0835 976.337 69.0835 976.337 105.064 976.337 141.045 976.337 177.026 947.489 177.026 918.64 177.026 889.792 177.026 889.792 185.95 889.792 194.873 889.792 203.796 925.842 203.796 961.892 203.796 997.943 203.796 997.943 210.129 997.943 216.462 997.943 222.794 961.892 222.794 925.842 222.794 889.792 222.794 889.792 237.618 889.792 252.443 889.792 267.267 883.211 267.267 876.63 267.267 870.049 267.267 870.049 252.443 870.049 237.618 870.049 222.794 835.033 222.794 800.018 222.794 765.002 222.794 765.002 216.462 765.002 210.129 765.002 203.796 800.018 203.796 835.033 203.796 870.049 203.796 870.049 194.873 870.049 185.95 870.049 177.026 842.028 177.026 814.007 177.026 785.987 177.026 785.987 141.045 785.987 105.064 785.987 69.0835 814.007 69.0835 842.028 69.0835 870.049 69.0835 870.049 60.6879 870.049 52.2923 870.049 43.8968 837.02 43.8968 803.991 43.8968 770.962 43.8968 770.962 37.756 770.962 31.6153 770.962 25.4745 803.991 25.4745 837.02 25.4745 870.049 25.4745 870.049 18.0864 870.049 10.6983 870.049 3.31022ZM554.785 3.31022C561.118 4.50958 567.45 5.70895 573.783 6.90831 568.899 31.8551 560.58 58.7209 548.825 87.5057 551.102 87.5057 553.378 87.5057 555.654 87.5057 555.654 147.042 555.654 206.579 555.654 266.115 549.487 266.115 543.32 266.115 537.153 266.115 537.153 215.454 537.153 164.793 537.153 114.132 528.461 132.938 520.846 147.426 514.306 157.597 510.25 153.471 506.194 149.345 502.138 145.219 513.147 126.701 523.536 104.177 533.304 77.6469 543.072 51.117 550.232 26.338 554.785 3.31022ZM651.016 0.863509C657.514 0.863509 664.012 0.863509 670.51 0.863509 670.51 7.77186 670.51 14.6802 670.51 21.5886 696.089 21.5886 721.667 21.5886 747.246 21.5886 747.246 27.2016 747.246 32.8146 747.246 38.4277 691.495 38.4277 635.743 38.4277 579.991 38.4277 579.991 32.8146 579.991 27.2016 579.991 21.5886 603.666 21.5886 627.341 21.5886 651.016 21.5886 651.016 14.6802 651.016 7.77186 651.016 0.863509ZM80.4613-3.42549e-05C87.2078 1.6311 93.9543 3.26224 100.701 4.89338 98.0518 11.322 93.6645 19.3337 87.5389 28.9287 119.657 28.9287 151.775 28.9287 183.894 28.9287 186.253 31.9031 188.612 34.8775 190.971 37.852 181.038 62.415 163.075 86.882 137.082 111.253 137.206 111.349 137.33 111.445 137.455 111.541 172.553 132.266 206.037 146.179 237.907 153.279 234.968 159.708 232.03 166.136 229.091 172.565 218.578 169.782 208.52 166.712 198.918 163.354 198.918 197.08 198.918 230.806 198.918 264.532 192.379 264.532 185.839 264.532 179.299 264.532 179.299 260.934 179.299 257.336 179.299 253.738 139.359 253.738 99.4177 253.738 59.4768 253.738 59.4768 257.336 59.4768 260.934 59.4768 264.532 53.0614 264.532 46.646 264.532 40.2307 264.532 40.2307 231.622 40.2307 198.711 40.2307 165.8 29.9661 169.35 18.5425 172.901 5.96013 176.451 3.97344 170.742 1.98674 165.033 4.30792e-05 159.324 39.0718 150.017 74.5426 134.233 106.413 111.973 88.615 96.525 74.7495 79.7818 64.816 61.7433 51.4058 78.7264 35.9675 94.1262 18.5012 107.943 15.19 103.433 11.8788 98.9237 8.56767 94.4141 43.3349 64.286 67.2994 32.8146 80.4613-3.42549e-05Z" fill="#FFFFFF" fill-rule="evenodd" transform="matrix(1 0 0 1.00077 42.5284 41.1564)"/><text fill="#000000" fill-opacity="0" font-family="Arial,Arial_MSFontService,sans-serif" font-size="267.267" x="4.30792e-05" y="233.858">各駅停車</text></g></svg>