<svg width="1083" height="363" xmlns="http://www.w3.org/2000/svg" xmlns:xlink="http://www.w3.org/1999/xlink" overflow="hidden"><defs><clipPath id="clip0"><rect x="0" y="0" width="1083" height="363"/></clipPath></defs><g clip-path="url(#clip0)"><rect x="0" y="0" width="1083" height="363.279"/><path d="M20.5 40.2791C20.5 28.8114 29.7893 19.515 41.2483 19.515L1042.75 19.515C1054.21 19.515 1063.5 28.8114 1063.5 40.2791L1063.5 324C1063.5 335.468 1054.21 344.764 1042.75 344.764L41.2483 344.764C29.7893 344.764 20.5 335.468 20.5 324Z" stroke="#004385" stroke-width="16.6615" stroke-miterlimit="8" fill="#004385" fill-rule="evenodd"/><path d="M323.893-85.4106C288.317-83.7892 265.45-79.8549 255.292-73.6077 245.135-67.3604 240.056-58.7526 240.056-47.7842 240.056-28.4225 251.787-18.7417 275.25-18.7417 291.178-18.7417 307.392-25.3228 323.893-38.4849ZM471.854-142.494C456.403-142.494 440.952-136.104 425.501-123.323L425.501-28.8994C439.808-22.5091 453.065-19.314 465.273-19.314 481.011-19.314 493.314-24.7743 502.185-35.6951 511.055-46.6158 515.49-62.0431 515.49-81.9771 515.49-122.322 500.945-142.494 471.854-142.494ZM726.13-143.782C710.298-143.782 697.946-138.226 689.076-127.114 680.206-116.003 675.771-100.385 675.771-80.2603 675.771-39.6294 690.316-19.314 719.406-19.314 735.716-19.314 751.167-25.6566 765.76-38.3418L765.76-134.053C751.644-140.539 738.434-143.782 726.13-143.782ZM582.607-161.665 607.787-161.665 607.787 0 582.607 0ZM279.685-165.528C303.625-165.528 321.15-161.069 332.262-152.151 343.373-143.233 348.929-129.38 348.929-110.59L348.929 0 323.893 0 323.893-18.0264C310.444-8.29785 299.381-2.12215 290.701 0.500731 282.022 3.12362 273.199 4.43506 264.234 4.43506 249.832 4.43506 237.862-0.333823 228.324-9.87158 218.786-19.4093 214.018-31.5223 214.018-46.2104 214.018-64.9998 221.099-79.1396 235.263-88.6296 249.427-98.1197 278.97-103.771 323.893-105.583L323.893-110.447C323.893-121.702 320.554-130.024 313.878-135.412 307.202-140.801 295.47-143.496 278.684-143.496 263.9-143.496 247.447-139.68 229.326-132.05L228.181-132.05 228.181-158.231C246.017-163.096 263.185-165.528 279.685-165.528ZM479.151-166.243C498.226-166.243 513.391-158.828 524.646-143.996 535.901-129.165 541.528-108.778 541.528-82.8354 541.528-57.3696 534.708-36.6727 521.069-20.7446 507.43-4.81657 490.549 3.14746 470.424 3.14746 455.068 3.14746 440.094-1.00147 425.501-9.29932L425.501 59.6587 400.321 59.6587 400.321-161.665 425.501-161.665 425.501-143.782C443.909-158.756 461.792-166.243 479.151-166.243ZM53.0777-192.997 53.0777-108.587 84.4092-108.587C104.152-108.587 118.316-112.593 126.9-120.605 135.484-128.617 139.776-140.3 139.776-155.656 139.776-180.55 122.942-192.997 89.2735-192.997ZM26.4673-215.601 87.5566-215.601C116.265-215.601 136.795-210.212 149.147-199.435 161.498-188.657 167.674-174.493 167.674-156.944 167.674-127.281 153.129-106.394 124.039-94.2808L202.725 0 167.96 0 96.999-86.6982 53.0777-86.6982 53.0777 0 26.4673 0ZM580.891-220.179 609.361-220.179 609.361-193.998 580.891-193.998ZM765.76-225.187 790.939-225.187 790.939 0 765.76 0 765.76-17.8833C747.352-3.00439 729.516 4.43506 712.253 4.43506 693.177 4.43506 677.989-3.05208 666.686-18.0264 655.384-33.0007 649.733-53.4591 649.733-79.4019 649.733-105.058 656.552-125.946 670.191-142.065 683.83-158.184 700.665-166.243 720.694-166.243 734.714-166.243 749.736-161.999 765.76-153.51Z" stroke="#000000" stroke-linejoin="round" stroke-miterlimit="10" fill="#FFFFFF" fill-rule="evenodd" transform="matrix(1 0 0 1.00077 131.999 275.031)"/><text fill="#000000" fill-opacity="0" font-family="Arial,Arial_MSFontService,sans-serif" font-size="284.845" x="26.4673" y="24.053">Rapid</text></g></svg>