<svg width="1083" height="363" xmlns="http://www.w3.org/2000/svg" xmlns:xlink="http://www.w3.org/1999/xlink" overflow="hidden"><defs><clipPath id="clip0"><rect x="0" y="0" width="1083" height="363"/></clipPath></defs><g clip-path="url(#clip0)"><rect x="0" y="0" width="1083" height="363.279"/><path d="M20.5 40.2791C20.5 28.8114 29.7893 19.515 41.2483 19.515L1042.75 19.515C1054.21 19.515 1063.5 28.8114 1063.5 40.2791L1063.5 324C1063.5 335.468 1054.21 344.764 1042.75 344.764L41.2483 344.764C29.7893 344.764 20.5 335.468 20.5 324Z" stroke="#004385" stroke-width="16.6615" stroke-miterlimit="8" fill="#004385" fill-rule="evenodd"/><path d="M190.994-181.265 190.994-112.164 237.919-112.164 237.919-181.265ZM14.7358-190.851 34.7651-189.849C34.3836-178.881 33.0483-164.526 30.7593-146.786 28.4702-129.046 26.1335-115.836 23.749-107.157L4.292-111.306C10.3962-135.15 13.8774-161.665 14.7358-190.851ZM99.002-199.721 110.304-161.808 92.9932-156.801 82.2632-195ZM51.5039-240.352 73.5361-240.352 73.5361 18.0264 51.5039 18.0264ZM168.389-242.211 190.994-242.211 190.994-198.004 260.381-198.004 260.381-112.164 285.847-112.164 285.847-94.5669 198.576-94.5669C204.585-76.922 215.506-58.8241 231.338-40.2732 247.171-21.7222 263.91-7.43945 281.555 2.57519L266.104 19.314C248.649 9.01318 231.934-5.81804 215.959-25.1797 199.983-44.5413 188.895-63.283 182.696-81.4048 176.019-59.5633 164.908-39.7486 149.361-21.9607 133.815-4.17277 116.122 9.15625 96.2837 18.0264L85.8399 4.00586C105.297-4.86426 122.155-18.8609 136.414-37.9841 150.673-57.1073 159.805-75.9683 163.811-94.5669L97.8574-94.5669 97.8574-112.164 168.389-112.164 168.389-181.265 118.459-181.265 118.459-198.004 168.389-198.004Z" stroke="#000000" stroke-linejoin="round" stroke-miterlimit="10" fill="#FFFFFF" fill-rule="evenodd" transform="matrix(1 0 0 1.00077 148.621 290.168)"/><text fill="#000000" fill-opacity="0" font-family="Arial,Arial_MSFontService,sans-serif" font-size="261.525" x="4.292" y="-13.3767">快</text><path d="M8.72705-137.344 69.1011-137.344 69.1011-45.4951C69.1011-36.5296 72.2485-29.2094 78.5435-23.5344 84.8384-17.8595 92.2301-14.0444 100.719-12.0891 109.207-10.1339 117.171-8.63167 124.611-7.58252 132.05-6.53337 153.653-6.00879 189.42-6.00879 235.583-6.00879 268.393-6.62874 287.85-7.86865L283.701 11.5884 203.87 11.8745C163.716 11.8745 138.965 11.4453 129.618 10.5869 120.271 9.72851 110.686 8.22632 100.862 6.08032 91.0379 3.93433 82.4778 0.357667 75.1814-4.64966 67.885-9.65698 62.5677-15.1173 59.2295-21.0308 43.3968-4.81657 27.7549 7.05794 12.3037 14.5928L4.57813-4.57812C9.8239-6.86719 17.1918-11.1353 26.6819-17.3826 36.172-23.6298 42.8246-28.6133 46.6397-32.333L46.6397-119.604 8.72705-119.604ZM189.563-162.953 189.563-121.75 237.919-121.75 237.919-162.953ZM119.604-162.953 119.604-121.75 167.388-121.75 167.388-162.953ZM36.7681-239.207C51.7424-220.704 63.8076-204.537 72.9639-190.708L52.9346-178.833C44.3506-194.093 32.9053-210.451 18.5986-227.905ZM167.388-240.638 189.563-240.638 189.563-220.036 272.255-220.036 272.255-202.439 189.563-202.439 189.563-178.547 259.522-178.547 259.522-106.728 195-106.728C204.728-95.5684 217.962-84.5046 234.7-73.5361 251.439-62.5677 267.582-54.2222 283.128-48.4995L272.255-31.4746C240.208-44.3506 212.549-62.8538 189.277-86.9844L189.277-18.8848 167.96-18.8848 167.96-85.5537C144.497-61.9001 118.316-44.2552 89.4165-32.6191L81.4048-47.355C98.0959-54.6991 114.286-64.6183 129.976-77.1128 145.665-89.6073 156.276-99.4788 161.808-106.728L98.1436-106.728 98.1436-178.547 167.388-178.547 167.388-202.439 86.4121-202.439 86.4121-220.036 167.388-220.036Z" stroke="#000000" stroke-linejoin="round" stroke-miterlimit="10" fill="#FFFFFF" fill-rule="evenodd" transform="matrix(1 0 0 1.00077 641.136 290.168)"/><text fill="#000000" fill-opacity="0" font-family="Arial,Arial_MSFontService,sans-serif" font-size="255.23" x="4.57813" y="-17.311">速</text></g></svg>