<svg width="1083" height="363" xmlns="http://www.w3.org/2000/svg" xmlns:xlink="http://www.w3.org/1999/xlink" overflow="hidden"><defs><clipPath id="clip0"><rect x="0" y="0" width="1083" height="363"/></clipPath></defs><g clip-path="url(#clip0)"><rect x="0" y="0" width="1083" height="363.279"/><path d="M20.5 40.2791C20.5 28.8114 29.7893 19.515 41.2483 19.515L1042.75 19.515C1054.21 19.515 1063.5 28.8114 1063.5 40.2791L1063.5 324C1063.5 335.468 1054.21 344.764 1042.75 344.764L41.2483 344.764C29.7893 344.764 20.5 335.468 20.5 324Z" stroke="#D7C900" stroke-width="16.6615" stroke-miterlimit="8" fill="#D7C900" fill-rule="evenodd"/><path d="M524.663 196.12C530.54 197.837 536.417 199.555 542.295 201.273 535.998 223.319 527.308 243.169 516.225 260.825 510.726 257.628 505.226 254.431 499.727 251.234 509.382 237.586 517.694 219.215 524.663 196.12ZM329.079 192.398C329.079 203.754 329.079 215.111 329.079 226.468 348.81 226.468 368.54 226.468 388.271 226.468 388.271 215.111 388.271 203.754 388.271 192.398 368.54 192.398 348.81 192.398 329.079 192.398ZM704.882 187.817C718.567 205.472 730.238 223.796 739.893 242.788 733.848 246.51 727.803 250.232 721.758 253.953 718.483 246.7 713.257 237.109 706.078 225.18 698.9 213.25 693.002 204.184 688.384 197.981 693.883 194.593 699.382 191.205 704.882 187.817ZM561.311 186.958C567.86 186.958 574.409 186.958 580.958 186.958 580.958 201.607 580.958 216.257 580.958 230.906 580.958 235.678 582.826 238.851 586.562 240.426 590.298 242 600.521 242.788 617.228 242.788 618.74 242.788 624.974 242.597 635.93 242.215 646.887 241.833 653.646 240.569 656.206 238.421 658.767 236.274 660.425 232.433 661.181 226.898 661.937 221.362 662.314 214.205 662.314 205.425 668.108 206.14 673.901 206.856 679.694 207.572 679.694 217.545 679.694 227.518 679.694 237.491 679.694 246.844 675.958 253.262 668.485 256.745 661.013 260.228 644.011 261.97 617.48 261.97 610.176 261.97 602.85 261.731 595.504 261.254 588.157 260.777 582.658 260.3 579.006 259.823 575.354 259.346 572.163 257.986 569.434 255.743 566.706 253.5 564.67 250.9 563.326 247.941 561.983 244.983 561.311 241.595 561.311 237.777 561.311 220.837 561.311 203.898 561.311 186.958ZM614.71 176.078C621.258 184.667 629.151 195.738 638.386 209.29 633.097 212.678 627.807 216.066 622.518 219.454 618.656 212.582 610.848 201.225 599.093 185.383 604.299 182.282 609.504 179.18 614.71 176.078ZM329.079 146.875C329.079 156.943 329.079 167.012 329.079 177.08 348.81 177.08 368.54 177.08 388.271 177.08 388.271 167.012 388.271 156.943 388.271 146.875 368.54 146.875 348.81 146.875 329.079 146.875ZM310.944 131.128C343.017 131.128 375.089 131.128 407.162 131.128 407.162 168.396 407.162 205.663 407.162 242.931 381.134 242.931 355.107 242.931 329.079 242.931 329.079 245.221 329.079 247.512 329.079 249.802 323.034 249.802 316.989 249.802 310.944 249.802 310.944 210.244 310.944 170.686 310.944 131.128ZM844.297 102.784C895.512 102.784 946.727 102.784 997.943 102.784 997.943 108.749 997.943 114.713 997.943 120.678 982.326 120.678 966.71 120.678 951.093 120.678 951.093 161.143 951.093 201.607 951.093 242.072 951.093 248.466 948.931 253.596 944.607 257.461 940.283 261.326 935.267 263.258 929.557 263.258 916.502 263.258 903.446 263.258 890.39 263.258 889.677 256.292 888.963 249.325 888.249 242.358 898.702 242.358 909.155 242.358 919.608 242.358 926.577 242.358 930.061 239.066 930.061 232.481 930.061 195.213 930.061 157.945 930.061 120.678 901.473 120.678 872.885 120.678 844.297 120.678 844.297 114.713 844.297 108.749 844.297 102.784ZM819.864 71.0039C826.161 73.008 832.458 75.0122 838.755 77.0163 831.199 93.6221 820.998 111.659 808.152 131.128 810.545 131.128 812.938 131.128 815.331 131.128 815.331 176.508 815.331 221.887 815.331 267.267 808.698 267.267 802.065 267.267 795.432 267.267 795.432 227.947 795.432 188.628 795.432 149.309 784.182 164.101 773.393 176.269 763.066 185.813 758.994 181.518 754.922 177.223 750.85 172.929 764.115 160.141 777.234 143.917 790.206 124.257 803.177 104.597 813.064 86.8462 819.864 71.0039ZM394.82 70.0018C394.82 78.0184 394.82 86.035 394.82 94.0515 413.081 94.0515 431.342 94.0515 449.603 94.0515 449.603 86.035 449.603 78.0184 449.603 70.0018 431.342 70.0018 413.081 70.0018 394.82 70.0018ZM272.785 70.0018C272.785 78.0184 272.785 86.035 272.785 94.0515 290.668 94.0515 308.551 94.0515 326.435 94.0515 326.435 86.035 326.435 78.0184 326.435 70.0018 308.551 70.0018 290.668 70.0018 272.785 70.0018ZM173.041 48.2425C179.212 51.1533 185.383 54.0641 191.554 56.9749 181.059 79.9748 164.645 104.836 142.311 131.558 163.133 149.786 180.681 165.962 194.954 180.087 190.042 185.097 185.131 190.107 180.219 195.118 172.411 186.338 155.367 170.209 129.088 146.732 98.9463 179.848 69.3506 203.754 40.3006 218.452 37.7398 213.155 35.1791 207.858 32.6183 202.562 61.9202 185.956 89.5429 163.242 115.486 134.421 88.8712 110.562 69.3086 94.3855 56.7986 85.8918 60.5768 81.12 64.355 76.3483 68.1332 71.5765 85.2609 83.8877 105.285 99.8254 128.206 119.39 145.67 97.6303 160.615 73.9147 173.041 48.2425ZM572.016 36.7903C562.193 47.8608 551.278 58.2155 539.272 67.8545 568.49 67.8545 597.708 67.8545 626.926 67.8545 632.299 60.7923 639.351 50.4376 648.083 36.7903 622.728 36.7903 597.372 36.7903 572.016 36.7903ZM394.82 30.921C394.82 39.0807 394.82 47.2405 394.82 55.4002 413.081 55.4002 431.342 55.4002 449.603 55.4002 449.603 47.2405 449.603 39.0807 449.603 30.921 431.342 30.921 413.081 30.921 394.82 30.921ZM272.785 30.921C272.785 39.0807 272.785 47.2405 272.785 55.4002 290.668 55.4002 308.551 55.4002 326.435 55.4002 326.435 47.2405 326.435 39.0807 326.435 30.921 308.551 30.921 290.668 30.921 272.785 30.921ZM857.772 20.1845C900.885 20.1845 943.999 20.1845 987.112 20.1845 987.112 26.2447 987.112 32.3048 987.112 38.365 943.999 38.365 900.885 38.365 857.772 38.365 857.772 32.3048 857.772 26.2447 857.772 20.1845ZM3.34446e-05 18.3236C71.9114 18.3236 143.823 18.3236 215.734 18.3236 215.734 24.0974 215.734 29.8712 215.734 35.6451 150.12 35.6451 84.5053 35.6451 18.8909 35.6451 18.8909 101.639 18.8909 167.632 18.8909 233.626 85.9746 233.626 153.058 233.626 220.142 233.626 220.142 239.4 220.142 245.173 220.142 250.947 153.058 250.947 85.9746 250.947 18.8909 250.947 18.8909 254.765 18.8909 258.582 18.8909 262.4 12.594 262.4 6.297 262.4 3.34446e-05 262.4 3.34446e-05 181.041 3.34446e-05 99.6822 3.34446e-05 18.3236ZM376.181 15.031C407.12 15.031 438.059 15.031 468.998 15.031 468.998 90.1864 468.998 165.342 468.998 240.497 468.998 247.941 466.815 253.786 462.449 258.033 458.083 262.28 452.29 264.404 445.069 264.404 436.757 264.404 428.445 264.404 420.133 264.404 419.168 257.914 418.202 251.424 417.237 244.935 425.045 244.935 432.853 244.935 440.662 244.935 442.928 244.935 444.985 243.957 446.833 242 448.68 240.044 449.603 237.873 449.603 235.487 449.603 193.781 449.603 152.076 449.603 110.371 425.129 110.371 400.655 110.371 376.181 110.371 376.181 78.591 376.181 46.811 376.181 15.031ZM253.894 15.031C284.203 15.031 314.512 15.031 344.822 15.031 344.822 46.811 344.822 78.591 344.822 110.371 320.809 110.371 296.797 110.371 272.785 110.371 272.785 162.622 272.785 214.873 272.785 267.124 266.488 267.124 260.191 267.124 253.894 267.124 253.894 183.093 253.894 99.0619 253.894 15.031ZM810.419 8.15969C816.632 10.7842 822.845 13.4086 829.058 16.0331 820.914 29.6804 810.986 43.3276 799.273 56.9749 787.561 70.6221 777.045 80.786 767.726 87.4665 764.157 82.6947 760.589 77.923 757.021 73.1512 777.171 57.0226 794.97 35.3588 810.419 8.15969ZM576.298-3.40714e-05C582.763 1.81324 589.228 3.62651 595.693 5.43978 591.075 12.3111 587.507 17.4646 584.988 20.9003 614.164 20.9003 643.34 20.9003 672.515 20.9003 674.195 22.9999 675.874 25.0995 677.553 27.199 671.592 37.1243 661.601 50.6761 647.579 67.8545 670.878 67.8545 694.177 67.8545 717.476 67.8545 717.476 102.832 717.476 137.809 717.476 172.786 652.617 172.786 587.759 172.786 522.9 172.786 522.9 167.012 522.9 161.238 522.9 155.464 581.126 155.464 639.352 155.464 697.577 155.464 697.577 146.589 697.577 137.713 697.577 128.838 640.821 128.838 584.064 128.838 527.308 128.838 527.308 123.159 527.308 117.481 527.308 111.803 584.064 111.803 640.821 111.803 697.577 111.803 697.577 102.832 697.577 93.8607 697.577 84.8897 642.584 84.8897 587.591 84.8897 532.597 84.8897 532.597 80.9769 532.597 77.064 532.597 73.1512 523.614 79.9271 513.454 86.8462 502.12 93.9084 499.307 89.232 496.495 84.5557 493.682 79.8794 509.215 70.813 524.726 58.7643 540.217 43.7332 555.707 28.7022 567.734 14.1244 576.298-3.40714e-05Z" stroke="#000000" stroke-linejoin="round" stroke-miterlimit="10" fill="#FFFFFF" fill-rule="evenodd" transform="matrix(1 0 0 1.00077 42.5284 41.1564)"/><text fill="#000000" fill-opacity="0" font-family="Arial,Arial_MSFontService,sans-serif" font-size="267.267" x="3.34446e-05" y="233.858">区間急行</text></g></svg>