<svg width="1083" height="363" xmlns="http://www.w3.org/2000/svg" xmlns:xlink="http://www.w3.org/1999/xlink" overflow="hidden"><defs><clipPath id="clip0"><rect x="0" y="0" width="1083" height="363"/></clipPath></defs><g clip-path="url(#clip0)"><rect x="0" y="0" width="1083" height="363.279"/><path d="M20.5 40.2791C20.5 28.8114 29.7893 19.515 41.2483 19.515L1042.75 19.515C1054.21 19.515 1063.5 28.8114 1063.5 40.2791L1063.5 324C1063.5 335.468 1054.21 344.764 1042.75 344.764L41.2483 344.764C29.7893 344.764 20.5 335.468 20.5 324Z" stroke="#00A683" stroke-width="16.6615" stroke-miterlimit="8" fill="#00A683" fill-rule="evenodd"/><path d="M359.516-116.719C346.859-116.719 334.203-111.484 321.547-101.016L321.547-23.6719C333.266-18.4375 344.125-15.8203 354.125-15.8203 367.016-15.8203 377.094-20.293 384.359-29.2383 391.625-38.1836 395.258-50.8203 395.258-67.1484 395.258-100.195 383.344-116.719 359.516-116.719ZM599.773-119.414C587.898-119.414 578.289-115.898 570.945-108.867 563.602-101.836 559.383-92.1875 558.289-79.9219L635.984-79.9219C635.359-106.25 623.289-119.414 599.773-119.414ZM446.922-132.422 467.547-132.422 467.547-112.031C484.109-125.625 499.383-132.422 513.367-132.422 518.289-132.422 523.25-132.031 528.25-131.25L528.25-109.687 527.43-109.687C520.945-111.25 514.383-112.031 507.742-112.031 494.461-112.031 481.063-106.406 467.547-95.1562L467.547 0 446.922 0ZM153.273-132.422 178.234-132.422 215.383-81.3281 253.352-132.422 276.555-132.422 226.398-67.0312 276.555 0 251.594 0 214.211-51.4453 175.891 0 152.805 0 203.195-65.7422ZM728.75-135.586C745.156-135.586 759.57-132.383 771.992-125.977L771.992-103.242 771.172-103.242C757.5-113.32 743.008-118.359 727.695-118.359 718.242-118.359 710.781-116.621 705.312-113.145 699.844-109.668 697.109-104.844 697.109-98.6719 697.109-93.2031 698.574-89.0234 701.504-86.1328 704.434-83.2422 710.273-80.7031 719.023-78.5156L744.922-72.8906C755.625-70.5469 763.672-66.4258 769.062-60.5273 774.453-54.6289 777.148-46.9922 777.148-37.6172 777.148-25.5078 772.188-15.6836 762.266-8.14453 752.344-0.60547 739.023 3.16406 722.305 3.16406 705.742 3.16406 690.195-0.468748 675.664-7.73437L675.664-31.6406 676.484-31.6406C692.266-19.9219 707.93-14.0625 723.477-14.0625 745.273-14.0625 756.172-20.9375 756.172-34.6875 756.172-40.0781 754.727-44.2578 751.836-47.2266 748.945-50.1953 742.93-52.7344 733.789-54.8438 726.133-56.3281 717.344-58.2422 707.422-60.5859 697.5-62.9297 689.824-67.0508 684.395-72.9492 678.965-78.8476 676.25-86.4062 676.25-95.625 676.25-107.344 681.016-116.934 690.547-124.395 700.078-131.855 712.812-135.586 728.75-135.586ZM600.945-136.172C618.445-136.172 632.02-130.938 641.668-120.469 651.316-110 656.141-95.0781 656.141-75.7031L656.141-64.3359 558.289-64.3359C558.289-48.3984 562.605-36.1523 571.238-27.5977 579.871-19.043 591.805-14.7656 607.039-14.7656 622.195-14.7656 637.352-20.0391 652.508-30.5859L653.445-30.5859 653.445-8.20313C634.617-0.703124 619.031 3.04688 606.688 3.04688 584.656 3.04688 567.566-2.91016 555.418-14.8242 543.27-26.7383 537.195-43.5938 537.195-65.3906 537.195-87.0312 543.016-104.238 554.656-117.012 566.297-129.785 581.727-136.172 600.945-136.172ZM365.492-136.172C381.117-136.172 393.539-130.098 402.758-117.949 411.977-105.801 416.586-89.1016 416.586-67.8516 416.586-46.9922 411-30.0391 399.828-16.9922 388.656-3.94531 374.828 2.57812 358.344 2.57812 345.766 2.57812 333.5-0.820312 321.547-7.61719L321.547 48.8672 300.922 48.8672 300.922-132.422 321.547-132.422 321.547-117.773C336.625-130.039 351.273-136.172 365.492-136.172ZM21.6797-176.602 136.641-176.602 136.641-157.617 43.4766-157.617 43.4766-106.172 134.297-106.172 134.297-87.1875 43.4766-87.1875 43.4766-18.9844 136.641-18.9844 136.641 0 21.6797 0Z" stroke="#000000" stroke-linejoin="round" stroke-miterlimit="10" fill="#FFFFFF" fill-rule="evenodd" transform="matrix(1 0 0 1.00077 89.5557 258.231)"/><text fill="#000000" fill-opacity="0" font-family="Arial,Arial_MSFontService,sans-serif" font-size="225.469" x="21.6797" y="20.6836">Expres</text><path d="M63.75-135.586C80.1562-135.586 94.5703-132.383 106.992-125.977L106.992-103.242 106.172-103.242C92.5-113.32 78.0078-118.359 62.6953-118.359 53.2422-118.359 45.7813-116.621 40.3125-113.145 34.8438-109.668 32.1094-104.844 32.1094-98.6719 32.1094-93.2031 33.5742-89.0234 36.5039-86.1328 39.4336-83.2422 45.2734-80.7031 54.0234-78.5156L79.9219-72.8906C90.625-70.5469 98.6719-66.4258 104.062-60.5273 109.453-54.6289 112.148-46.9922 112.148-37.6172 112.148-25.5078 107.188-15.6836 97.2656-8.14453 87.3438-0.60547 74.0234 3.16406 57.3047 3.16406 40.7422 3.16406 25.1953-0.46875 10.6641-7.73438L10.6641-31.6406 11.4844-31.6406C27.2656-19.9219 42.9297-14.0625 58.4766-14.0625 80.2734-14.0625 91.1719-20.9375 91.1719-34.6875 91.1719-40.0781 89.7266-44.2578 86.8359-47.2266 83.9453-50.1953 77.9297-52.7344 68.7891-54.8438 61.1328-56.3281 52.3438-58.2422 42.4219-60.5859 32.5-62.9297 24.8242-67.0508 19.3945-72.9492 13.9648-78.8477 11.25-86.4062 11.25-95.625 11.25-107.344 16.0156-116.934 25.5469-124.395 35.0781-131.855 47.8125-135.586 63.75-135.586Z" stroke="#000000" stroke-linejoin="round" stroke-miterlimit="10" fill="#FFFFFF" fill-rule="evenodd" transform="matrix(1 0 0 1.00077 873.981 258.231)"/><text fill="#000000" fill-opacity="0" font-family="Arial,Arial_MSFontService,sans-serif" font-size="138.75" x="10.6641" y="-14.1797">s</text></g></svg>