<svg width="1083" height="363" xmlns="http://www.w3.org/2000/svg" xmlns:xlink="http://www.w3.org/1999/xlink" overflow="hidden"><defs><clipPath id="clip0"><rect x="0" y="0" width="1083" height="363"/></clipPath></defs><g clip-path="url(#clip0)"><rect x="0" y="0" width="1083" height="363.279"/><path d="M20.5 40.2791C20.5 28.8114 29.7893 19.515 41.2483 19.515L1042.75 19.515C1054.21 19.515 1063.5 28.8114 1063.5 40.2791L1063.5 324C1063.5 335.468 1054.21 344.764 1042.75 344.764L41.2483 344.764C29.7893 344.764 20.5 335.468 20.5 324Z" stroke="#00A683" stroke-width="16.6615" stroke-miterlimit="8" fill="#00A683" fill-rule="evenodd"/><path d="M38.3418-52.6484 58.3711-47.498C51.2178-25.4658 41.3462-5.62728 28.7564 12.0176L10.0147 2.43213C20.9831-11.2069 30.4255-29.5671 38.3418-52.6484ZM243.07-60.9463C258.616-43.3014 271.874-24.9889 282.842-6.00879L262.241 5.15039C258.521-2.09831 252.584-11.6838 244.429-23.606 236.274-35.5282 229.574-44.589 224.328-50.7886ZM79.9741-61.8047 102.292-61.8047 102.292-17.8833C102.292-13.1144 104.415-9.94312 108.659-8.36938 112.903-6.79566 124.515-6.00879 143.496-6.00879 145.212-6.00879 152.294-6.19954 164.741-6.58105 177.188-6.96256 184.866-8.22632 187.775-10.3723 190.684-12.5183 192.567-16.3573 193.426-21.8892 194.284-27.4211 194.713-34.5744 194.713-43.3491L214.457-41.2031 214.457-11.3022C214.457-1.95524 210.212 4.4589 201.724 7.94019 193.235 11.4215 173.921 13.1621 143.782 13.1621 135.484 13.1621 127.162 12.9237 118.817 12.4468 110.471 11.9699 104.224 11.493 100.075 11.0161 95.926 10.5392 92.3017 9.18009 89.2019 6.93872 86.1021 4.69735 83.7892 2.09831 82.2632-0.858398 80.7371-3.8151 79.9741-7.20101 79.9741-11.0161ZM140.634-72.6777C148.074-64.0938 157.039-53.0299 167.531-39.4863L149.504-29.3286C145.117-36.1958 136.247-47.5457 122.894-63.3784ZM92.1348-211.881C80.9756-200.818 68.5765-190.469 54.9375-180.836L154.512-180.836C160.616-187.894 168.628-198.242 178.547-211.881ZM96.999-248.649 119.031-243.213C113.785-236.346 109.732-231.195 106.871-227.762L206.302-227.762 212.024-221.467C205.253-211.548 193.903-198.004 177.975-180.836L257.376-180.836 257.376-75.9683 36.3389-75.9683 36.3389-93.2793 234.772-93.2793 234.772-119.89 41.3462-119.89 41.3462-136.915 234.772-136.915 234.772-163.811 47.355-163.811 47.355-175.542C37.1496-168.771 25.6089-161.856 12.7329-154.798L3.14746-168.818C20.7923-177.879 38.4133-189.921 56.0105-204.943 73.6077-219.965 87.2705-234.534 96.999-248.649Z" stroke="#000000" stroke-linejoin="round" stroke-miterlimit="10" fill="#FFFFFF" fill-rule="evenodd" transform="matrix(1 0 0 1.00077 148.621 290.168)"/><text fill="#000000" fill-opacity="0" font-family="Arial,Arial_MSFontService,sans-serif" font-size="261.812" x="3.14746" y="-19.5643">急</text><path d="M108.444-145.928 282.985-145.928 282.985-128.044 229.765-128.044 229.765-6.72412C229.765-0.33382 227.309 4.79272 222.397 8.65552 217.485 12.5183 211.786 14.4497 205.3 14.4497L160.807 14.4497 158.375-6.43799 193.998-6.43799C201.914-6.43799 205.873-9.72852 205.873-16.3096L205.873-128.044 108.444-128.044ZM80.6895-177.688 102.149-171.68C93.5654-155.084 81.9771-137.058 67.3843-117.601L75.5391-117.601 75.5391 18.4556 52.9346 18.4556 52.9346-99.4312C40.154-84.6476 27.898-72.487 16.1665-62.9492L2.28907-75.8252C17.3587-88.6058 32.2615-104.82 46.9973-124.468 61.7332-144.116 72.9639-161.856 80.6895-177.688ZM123.752-228.477 270.682-228.477 270.682-210.308 123.752-210.308ZM69.9595-240.495 91.1333-232.626C81.8817-218.987 70.6033-205.348 57.2981-191.709 43.9929-178.07 32.0469-167.912 21.46-161.236L9.29932-175.542C32.1899-191.661 52.41-213.312 69.9595-240.495Z" stroke="#000000" stroke-linejoin="round" stroke-miterlimit="10" fill="#FFFFFF" fill-rule="evenodd" transform="matrix(1 0 0 1.00077 641.136 290.168)"/><text fill="#000000" fill-opacity="0" font-family="Arial,Arial_MSFontService,sans-serif" font-size="258.95" x="2.28907" y="-13.9132">行</text></g></svg>