<svg width="1083" height="363" xmlns="http://www.w3.org/2000/svg" xmlns:xlink="http://www.w3.org/1999/xlink" overflow="hidden"><defs><clipPath id="clip0"><rect x="0" y="0" width="1083" height="363"/></clipPath></defs><g clip-path="url(#clip0)"><rect x="0" y="0" width="1083" height="363.279"/><path d="M20.5 40.2791C20.5 28.8114 29.7893 19.515 41.2483 19.515L1042.75 19.515C1054.21 19.515 1063.5 28.8114 1063.5 40.2791L1063.5 324C1063.5 335.468 1054.21 344.764 1042.75 344.764L41.2483 344.764C29.7893 344.764 20.5 335.468 20.5 324Z" stroke="#DD116C" stroke-width="16.6615" stroke-miterlimit="8" fill="#DD116C" fill-rule="evenodd"/><path d="M578.883-52.4707C557.027-51.4746 542.979-49.0576 536.739-45.2197 530.499-41.3818 527.379-36.0938 527.379-29.3555 527.379-17.4609 534.586-11.5137 549-11.5137 558.785-11.5137 568.746-15.5566 578.883-23.6426ZM180.887-87.5391C171.395-87.5391 161.902-83.6133 152.41-75.7617L152.41-17.7539C161.199-13.8281 169.344-11.8652 176.844-11.8652 186.512-11.8652 194.07-15.2197 199.52-21.9287 204.969-28.6377 207.693-38.1152 207.693-50.3613 207.693-75.1465 198.758-87.5391 180.887-87.5391ZM294.58-89.5605C285.674-89.5605 278.467-86.9238 272.959-81.6504 267.451-76.377 264.287-69.1406 263.467-59.9414L321.738-59.9414C321.27-79.6875 312.217-89.5605 294.58-89.5605ZM466.117-99.3164 481.586-99.3164 481.586 0 466.117 0ZM551.725-101.689C566.432-101.689 577.198-98.9502 584.024-93.4717 590.851-87.9932 594.264-79.4824 594.264-67.9395L594.264 0 578.883 0 578.883-11.0742C570.621-5.09766 563.824-1.30371 558.492 0.307616 553.16 1.91895 547.74 2.72461 542.232 2.72461 533.385 2.72461 526.031-0.205079 520.172-6.06445 514.312-11.9238 511.383-19.3652 511.383-28.3887 511.383-39.9316 515.733-48.6182 524.435-54.4482 533.136-60.2783 551.285-63.75 578.883-64.8633L578.883-67.8516C578.883-74.7656 576.832-79.8779 572.73-83.1885 568.629-86.499 561.422-88.1543 551.109-88.1543 542.027-88.1543 531.92-85.8105 520.787-81.123L520.084-81.123 520.084-97.207C531.041-100.195 541.588-101.689 551.725-101.689ZM408.074-101.777C417.859-101.777 428.201-99.0527 439.1-93.6035L439.1-76.377 438.396-76.377C427.439-84.4043 417.215-88.418 407.723-88.418 397.586-88.418 389.705-85.0488 384.08-78.3105 378.455-71.5723 375.643-61.9629 375.643-49.4824 375.643-37.002 378.44-27.4805 384.036-20.918 389.632-14.3555 397.527-11.0742 407.723-11.0742 417.508-11.0742 427.732-15.0293 438.396-22.9395L439.1-22.9395 439.1-6.06445C427.205-0.498046 416.834 2.28516 407.986 2.28516 392.693 2.28516 380.813-2.19727 372.347-11.1621 363.88-20.127 359.646-32.9004 359.646-49.4824 359.646-65.7129 364.012-78.4863 372.742-87.8027 381.473-97.1191 393.25-101.777 408.074-101.777ZM295.459-102.129C308.584-102.129 318.765-98.2031 326.001-90.3516 333.237-82.5 336.855-71.3086 336.855-56.7773L336.855-48.252 263.467-48.252C263.467-36.2988 266.704-27.1143 273.179-20.6982 279.653-14.2822 288.604-11.0742 300.029-11.0742 311.396-11.0742 322.764-15.0293 334.131-22.9395L334.834-22.9395 334.834-6.15234C320.713-0.527345 309.023 2.28516 299.766 2.28516 283.242 2.28516 270.425-2.18262 261.313-11.1182 252.202-20.0537 247.646-32.6953 247.646-49.043 247.646-65.2734 252.012-78.1787 260.742-87.7588 269.473-97.3389 281.045-102.129 295.459-102.129ZM185.369-102.129C197.088-102.129 206.404-97.5732 213.318-88.4619 220.232-79.3506 223.689-66.8262 223.689-50.8887 223.689-35.2441 219.5-22.5293 211.121-12.7441 202.742-2.95898 192.371 1.93359 180.008 1.93359 170.574 1.93359 161.375-0.615235 152.41-5.71289L152.41 36.6504 136.941 36.6504 136.941-99.3164 152.41-99.3164 152.41-88.3301C163.719-97.5293 174.705-102.129 185.369-102.129ZM58.3594-134.824C73.125-134.824 87.8906-131.572 102.656-125.068L102.656-105.82 101.426-105.82C89.2383-115.957 74.8828-121.025 58.3594-121.025 49.2188-121.025 41.8506-119.004 36.2549-114.961 30.6592-110.918 27.8613-105.615 27.8613-99.0527 27.8613-88.0957 34.2481-81.0352 47.0215-77.8711 54.4043-76.5234 62.6221-74.8389 71.6748-72.8174 80.7276-70.7959 87.2022-68.6865 91.0986-66.4893 94.9951-64.292 98.1592-61.7871 100.591-58.9746 103.022-56.1621 104.839-52.9688 106.04-49.3945 107.241-45.8203 107.842-41.8652 107.842-37.5293 107.842-26.0449 103.184-16.5234 93.8672-8.96484 84.5508-1.40625 72.2168 2.37305 56.8652 2.37305 41.9824 2.37305 26.3672-1.31836 10.0195-8.70117L10.0195-28.6523 11.1621-28.6523C24.6387-17.168 39.9316-11.4258 57.041-11.4258 67.5879-11.4258 75.8643-13.5791 81.8701-17.8857 87.876-22.1924 90.8789-27.9199 90.8789-35.0684 90.8789-40.5762 89.6045-44.8975 87.0557-48.0322 84.5068-51.167 80.0684-53.6133 73.7402-55.3711L44.209-61.3477C33.252-63.6328 24.9463-67.7783 19.292-73.7842 13.6377-79.79 10.8106-87.5977 10.8106-97.207 10.8106-108.105 15.2051-117.1 23.9941-124.189 32.7832-131.279 44.2383-134.824 58.3594-134.824ZM465.062-135.264 482.553-135.264 482.553-119.18 465.062-119.18ZM632.117-138.34 647.586-138.34 647.586 0 632.117 0Z" stroke="#000000" stroke-linejoin="round" stroke-miterlimit="10" fill="#FFFFFF" fill-rule="evenodd" transform="matrix(1 0 0 1.00077 206.353 158.894)"/><text fill="#000000" fill-opacity="0" font-family="Arial,Arial_MSFontService,sans-serif" font-size="174.99" x="10.0195" y="14.7766">Special</text><path d="M285.887-87.5391C276.395-87.5391 266.902-83.6133 257.41-75.7617L257.41-17.7539C266.199-13.8281 274.344-11.8652 281.844-11.8652 291.512-11.8652 299.07-15.2197 304.52-21.9287 309.969-28.6377 312.693-38.1152 312.693-50.3613 312.693-75.1465 303.758-87.5391 285.887-87.5391ZM481.58-89.5605C472.674-89.5605 465.467-86.9238 459.959-81.6504 454.451-76.377 451.287-69.1406 450.467-59.9414L508.738-59.9414C508.27-79.6875 499.217-89.5605 481.58-89.5605ZM359.941-99.3164 375.41-99.3164 375.41-84.0234C387.832-94.2188 399.287-99.3164 409.775-99.3164 413.467-99.3164 417.188-99.0234 420.938-98.4375L420.938-82.2656 420.322-82.2656C415.459-83.4375 410.537-84.0234 405.557-84.0234 395.596-84.0234 385.547-79.8047 375.41-71.3672L375.41 0 359.941 0ZM122.955-99.3164 141.676-99.3164 169.537-60.9961 198.014-99.3164 215.416-99.3164 177.799-50.2734 215.416 0 196.695 0 168.658-38.584 139.918 0 122.604 0 160.396-49.3066ZM683.812-101.689C696.117-101.689 706.928-99.2871 716.244-94.4824L716.244-77.4316 715.629-77.4316C705.375-84.9902 694.506-88.7695 683.021-88.7695 675.932-88.7695 670.336-87.4658 666.234-84.8584 662.133-82.251 660.082-78.6328 660.082-74.0039 660.082-69.9023 661.181-66.7676 663.378-64.5996 665.575-62.4316 669.955-60.5273 676.518-58.8867L695.941-54.668C703.969-52.9102 710.004-49.8193 714.047-45.3955 718.09-40.9717 720.111-35.2441 720.111-28.2129 720.111-19.1309 716.391-11.7627 708.949-6.1084 701.508-0.454102 691.518 2.37305 678.979 2.37305 666.557 2.37305 654.896-0.351561 643.998-5.80078L643.998-23.7305 644.613-23.7305C656.449-14.9414 668.197-10.5469 679.857-10.5469 696.205-10.5469 704.379-15.7031 704.379-26.0156 704.379-30.0586 703.295-33.1934 701.127-35.4199 698.959-37.6465 694.447-39.5508 687.592-41.1328 681.85-42.2461 675.258-43.6816 667.816-45.4395 660.375-47.1973 654.618-50.2881 650.546-54.7119 646.474-59.1357 644.438-64.8047 644.438-71.7188 644.438-80.5078 648.012-87.7002 655.16-93.2959 662.309-98.8916 671.859-101.689 683.812-101.689ZM586.812-101.689C599.117-101.689 609.928-99.2871 619.244-94.4824L619.244-77.4316 618.629-77.4316C608.375-84.9902 597.506-88.7695 586.021-88.7695 578.932-88.7695 573.336-87.4658 569.234-84.8584 565.133-82.251 563.082-78.6328 563.082-74.0039 563.082-69.9023 564.181-66.7676 566.378-64.5996 568.575-62.4316 572.955-60.5273 579.518-58.8867L598.941-54.668C606.969-52.9102 613.004-49.8193 617.047-45.3955 621.09-40.9717 623.111-35.2441 623.111-28.2129 623.111-19.1309 619.391-11.7627 611.949-6.1084 604.508-0.454102 594.518 2.37305 581.979 2.37305 569.557 2.37305 557.896-0.351561 546.998-5.80078L546.998-23.7305 547.613-23.7305C559.449-14.9414 571.197-10.5469 582.857-10.5469 599.205-10.5469 607.379-15.7031 607.379-26.0156 607.379-30.0586 606.295-33.1934 604.127-35.4199 601.959-37.6465 597.447-39.5508 590.592-41.1328 584.85-42.2461 578.258-43.6816 570.816-45.4395 563.375-47.1973 557.618-50.2881 553.546-54.7119 549.474-59.1357 547.438-64.8047 547.438-71.7188 547.438-80.5078 551.012-87.7002 558.16-93.2959 565.309-98.8916 574.859-101.689 586.812-101.689ZM482.459-102.129C495.584-102.129 505.765-98.2031 513.001-90.3516 520.237-82.5 523.855-71.3086 523.855-56.7773L523.855-48.2519 450.467-48.2519C450.467-36.2988 453.704-27.1143 460.179-20.6982 466.653-14.2822 475.604-11.0742 487.029-11.0742 498.396-11.0742 509.764-15.0293 521.131-22.9395L521.834-22.9395 521.834-6.15234C507.713-0.527343 496.023 2.28516 486.766 2.28516 470.242 2.28516 457.425-2.18262 448.313-11.1182 439.202-20.0537 434.646-32.6953 434.646-49.043 434.646-65.2734 439.012-78.1787 447.742-87.7588 456.473-97.3389 468.045-102.129 482.459-102.129ZM290.369-102.129C302.088-102.129 311.404-97.5732 318.318-88.4619 325.232-79.3506 328.689-66.8262 328.689-50.8887 328.689-35.2441 324.5-22.5293 316.121-12.7441 307.742-2.95898 297.371 1.93359 285.008 1.93359 275.574 1.93359 266.375-0.615234 257.41-5.71289L257.41 36.6504 241.941 36.6504 241.941-99.3164 257.41-99.3164 257.41-88.3301C268.719-97.5293 279.705-102.129 290.369-102.129ZM16.2598-132.451 102.48-132.451 102.48-118.213 32.6074-118.213 32.6074-79.6289 100.723-79.6289 100.723-65.3906 32.6074-65.3906 32.6074-14.2383 102.48-14.2383 102.48 0 16.2598 0Z" stroke="#000000" stroke-linejoin="round" stroke-miterlimit="10" fill="#FFFFFF" fill-rule="evenodd" transform="matrix(1 0 0 1.00077 174.53 305.005)"/><text fill="#000000" fill-opacity="0" font-family="Arial,Arial_MSFontService,sans-serif" font-size="169.102" x="16.2598" y="15.5127">Express</text></g></svg>