<svg width="1083" height="363" xmlns="http://www.w3.org/2000/svg" xmlns:xlink="http://www.w3.org/1999/xlink" overflow="hidden"><defs><clipPath id="clip0"><rect x="0" y="0" width="1083" height="363"/></clipPath></defs><g clip-path="url(#clip0)"><rect x="0" y="0" width="1083" height="363.279"/><path d="M20.5 40.2791C20.5 28.8114 29.7893 19.515 41.2483 19.515L1042.75 19.515C1054.21 19.515 1063.5 28.8114 1063.5 40.2791L1063.5 324C1063.5 335.468 1054.21 344.764 1042.75 344.764L41.2483 344.764C29.7893 344.764 20.5 335.468 20.5 324Z" stroke="#DD116C" stroke-width="16.6615" stroke-miterlimit="8" fill="#DD116C" fill-rule="evenodd"/><path d="M141.493-75.6821C154.75-59.7541 166.577-43.7306 176.973-27.6118L157.659-16.0234C144.592-35.862 132.813-52.0762 122.322-64.666ZM183.268-241.639 206.302-241.639 206.302-212.024 269.108-212.024 269.108-194.427 206.302-194.427 206.302-153.081 281.984-153.081 281.984-135.484 244.644-135.484 244.644-101.148 276.261-101.148 276.261-83.2646 244.644-83.2646 244.644-10.5869C244.644-3.52897 242.116 2.31291 237.061 6.93872 232.006 11.5645 225.759 13.8774 218.319 13.8774L181.551 13.8774 178.261-5.86572 209.306-5.86572C212.644-5.86572 215.577-6.96257 218.105-9.15625 220.632-11.3499 221.896-14.0205 221.896-17.168L221.896-83.2646 118.745-83.2646 118.745-101.148 221.896-101.148 221.896-135.484 113.309-135.484 113.309-153.081 183.268-153.081 183.268-194.427 121.177-194.427 121.177-212.024 183.268-212.024ZM61.9478-242.211 83.8369-242.211 83.8369-181.837 110.447-181.837 110.447-164.812 83.8369-164.812 83.8369-106.441C93.6608-109.78 101.1-112.498 106.155-114.596L109.446-98.4297C104.2-95.8545 95.6637-92.4686 83.8369-88.272L83.8369 17.7402 61.9478 17.7402 61.9478-80.8325C48.0226-76.2544 31.1885-70.9609 11.4453-64.9521L6.15186-82.8354C17.311-85.506 35.9097-90.9902 61.9478-99.2881L61.9478-164.812 36.625-164.812C33.096-145.737 29.0902-131.478 24.6074-122.036L7.58253-127.472C11.2069-135.77 14.4974-148.694 17.4541-166.243 20.4108-183.793 21.8892-203.536 21.8892-225.473L42.4907-225.187C42.2046-209.068 41.2031-194.618 39.4863-181.837L61.9478-181.837Z" stroke="#000000" stroke-linejoin="round" stroke-miterlimit="10" fill="#FFFFFF" fill-rule="evenodd" transform="matrix(1 0 0 1.00077 148.621 290.168)"/><text fill="#000000" fill-opacity="0" font-family="Arial,Arial_MSFontService,sans-serif" font-size="259.952" x="6.15186" y="-14.7537">特</text><path d="M38.3418-52.6484 58.3711-47.498C51.2178-25.4658 41.3462-5.62728 28.7564 12.0176L10.0147 2.43213C20.9831-11.2069 30.4255-29.5671 38.3418-52.6484ZM243.07-60.9463C258.616-43.3014 271.874-24.9889 282.842-6.00879L262.241 5.15039C258.521-2.09831 252.584-11.6838 244.429-23.606 236.274-35.5282 229.574-44.589 224.328-50.7886ZM79.9741-61.8047 102.292-61.8047 102.292-17.8833C102.292-13.1144 104.415-9.94312 108.659-8.36938 112.903-6.79566 124.515-6.00879 143.496-6.00879 145.212-6.00879 152.294-6.19954 164.741-6.58105 177.188-6.96256 184.866-8.22632 187.775-10.3723 190.684-12.5183 192.567-16.3573 193.426-21.8892 194.284-27.4211 194.713-34.5744 194.713-43.3491L214.457-41.2031 214.457-11.3022C214.457-1.95524 210.212 4.4589 201.724 7.94019 193.235 11.4215 173.921 13.1621 143.782 13.1621 135.484 13.1621 127.162 12.9237 118.817 12.4468 110.471 11.9699 104.224 11.493 100.075 11.0161 95.926 10.5392 92.3017 9.18009 89.2019 6.93872 86.1021 4.69735 83.7892 2.09831 82.2632-0.858398 80.7371-3.8151 79.9741-7.20101 79.9741-11.0161ZM140.634-72.6777C148.074-64.0938 157.039-53.0299 167.531-39.4863L149.504-29.3286C145.117-36.1958 136.247-47.5457 122.894-63.3784ZM92.1348-211.881C80.9756-200.818 68.5765-190.469 54.9375-180.836L154.512-180.836C160.616-187.894 168.628-198.242 178.547-211.881ZM96.999-248.649 119.031-243.213C113.785-236.346 109.732-231.195 106.871-227.762L206.302-227.762 212.024-221.467C205.253-211.548 193.903-198.004 177.975-180.836L257.376-180.836 257.376-75.9683 36.3389-75.9683 36.3389-93.2793 234.772-93.2793 234.772-119.89 41.3462-119.89 41.3462-136.915 234.772-136.915 234.772-163.811 47.355-163.811 47.355-175.542C37.1496-168.771 25.6089-161.856 12.7329-154.798L3.14746-168.818C20.7923-177.879 38.4133-189.921 56.0105-204.943 73.6077-219.965 87.2705-234.534 96.999-248.649Z" stroke="#000000" stroke-linejoin="round" stroke-miterlimit="10" fill="#FFFFFF" fill-rule="evenodd" transform="matrix(1 0 0 1.00077 641.136 290.168)"/><text fill="#000000" fill-opacity="0" font-family="Arial,Arial_MSFontService,sans-serif" font-size="261.812" x="3.14746" y="-19.5643">急</text></g></svg>