<svg width="1083" height="363" xmlns="http://www.w3.org/2000/svg" xmlns:xlink="http://www.w3.org/1999/xlink" overflow="hidden"><defs><clipPath id="clip0"><rect x="0" y="0" width="1083" height="363"/></clipPath></defs><g clip-path="url(#clip0)"><rect x="0" y="0" width="1083" height="363.279"/><path d="M20.5 40.2791C20.5 28.8114 29.7893 19.515 41.2483 19.515L1042.75 19.515C1054.21 19.515 1063.5 28.8114 1063.5 40.2791L1063.5 324C1063.5 335.468 1054.21 344.764 1042.75 344.764L41.2483 344.764C29.7893 344.764 20.5 335.468 20.5 324Z" stroke="#FFFFFF" stroke-width="16.6615" stroke-miterlimit="8" fill="#FFFFFF" fill-rule="evenodd"/><g><g><g><path d="M592.991 621.496C588.65 621.496 584.218 624.992 583.055 629.332L551.33 747.727 573.137 747.727 588.714 689.591 671.649 747.727 707.862 747.727 613.531 681.985 731.367 621.496 696.907 621.496 592.546 675.284 606.96 621.496Z" fill="#231815" transform="matrix(1 0 0 1.00113 -177.169 -571.884)"/><path d="M761.423 621.496C754.187 621.496 746.803 627.322 744.865 634.557L714.539 747.727 852.309 747.727 856.968 730.341 741.004 730.341 751.678 690.498 831.503 690.498 835.967 673.836 756.143 673.836 765.8 637.796 880.208 637.796 884.575 621.496Z" fill="#231815" transform="matrix(1 0 0 1.00113 -177.169 -571.884)"/><path d="M925.988 621.496C920.199 621.496 914.29 626.157 912.739 631.945L881.716 747.727 903.521 747.727 937.345 621.496Z" fill="#231815" transform="matrix(1 0 0 1.00113 -177.169 -571.884)"/><path d="M561.333 759.138C554.097 759.138 546.714 764.963 544.775 772.199L514.449 885.371 644.503 885.371 649.163 867.984 540.914 867.984 570.077 759.138Z" fill="#231815" transform="matrix(1 0 0 1.00113 -177.169 -571.884)"/><path d="M709.18 759.138C703.392 759.138 697.483 763.798 695.932 769.586L664.909 885.371 686.714 885.371 720.537 759.138Z" fill="#231815" transform="matrix(1 0 0 1.00113 -177.169 -571.884)"/><path d="M932.256 759.138C925.021 759.138 917.637 764.963 915.698 772.199L885.373 885.371 1022.09 885.371 1026.75 867.984 911.837 867.984 922.512 828.141 1002.34 828.141 1006.8 811.478 926.977 811.478 936.634 775.437 1050 775.437 1054.37 759.138Z" fill="#231815" transform="matrix(1 0 0 1.00113 -177.169 -571.884)"/><path d="M1079.06 759.138C1073.27 759.138 1067.36 763.798 1065.81 769.586L1034.78 885.371 1056.39 885.371 1085.9 775.257 1176.17 775.257C1179.48 775.257 1181.47 775.8 1182.45 776.525 1183.23 777.249 1183.33 779.061 1182.64 781.596L1174.27 812.433C1173.6 814.969 1172.53 816.78 1171.36 817.505 1169.99 818.229 1167.76 818.59 1164.45 818.59L1094.93 818.59 1158.05 885.371 1191.9 885.371 1139.56 835.253 1155.51 835.253C1168.74 835.253 1178.28 833.804 1183.92 830.906 1189.56 828.009 1193.84 821.489 1196.47 811.709L1204.6 781.776C1206.93 773.083 1206.39 767.106 1203.37 763.846 1200.1 760.767 1192.75 759.138 1181.46 759.138Z" fill="#231815" transform="matrix(1 0 0 1.00113 -177.169 -571.884)"/><path d="M553.115 174.606C547.326 174.606 541.418 179.266 539.866 185.055L508.843 300.84 530.143 300.84 549.65 228.033C552.755 216.442 554.85 210.341 556.41 203.097L556.982 203.097C560.518 208.35 564.815 212.556 569.922 217.627L652.602 300.84 665.539 300.84 699.362 174.606 678.062 174.606 658.846 242.147C654.742 256.574 652.581 265.19 651.89 269.898L651.32 269.898C647.165 264.827 643.008 260.801 638.613 255.912L558.955 176.807C557.554 175.427 555.543 174.606 553.115 174.606Z" fill="#231815" transform="matrix(1 0 -1.08471e-06 1.00114 23.8241 13.3082)"/><path d="M1001.93 810.279C1012.65 810.279 1019.66 807.417 1024.6 803.604 1029.32 799.972 1033.88 793.572 1036.69 782.313L1053.71 714.039C1056.47 702.962 1055.09 696.562 1052.23 692.749 1049.14 689.117 1043.61 686.074 1032.89 686.074L936.282 686.074C925.386 686.074 918.336 689.117 913.436 692.749 908.49 696.562 904.107 702.962 901.345 714.039L884.327 782.313C881.521 793.572 882.715 799.972 885.804 803.604 888.849 807.417 894.427 810.279 905.323 810.279ZM1015.27 786.672C1014.63 789.214 1013.63 791.03 1012.36 791.756 1011.09 792.483 1009 792.846 1005.73 792.846L915.844 792.846 910.213 792.846C906.763 792.846 904.675 792.483 903.766 791.756 902.857 791.03 902.946 789.214 903.58 786.672L922.779 709.649C923.412 707.106 924.365 705.472 925.635 704.745 926.906 704.019 929.221 703.474 932.489 703.474L1028.01 703.474C1031.28 703.474 1033.15 704.019 1034.05 704.745 1034.96 705.472 1035.09 707.106 1034.46 709.649Z" fill="#231815" transform="matrix(1.07379 0 0 1 -194.228 -634.677)"/><path d="M329.862 619.977C314.65 619.977 299.125 632.224 295.05 647.435L231.294 885.369 480.351 885.37 494.221 833.585 297.757 833.584 354.995 619.977Z" fill="#888888" transform="matrix(1 0 0 1.00113 -177.169 -571.884)"/><path d="M475.735 619.978 325.878 728.643 401.606 728.643 551.463 619.978Z" fill="#C5006F" transform="matrix(1 0 0 1.00113 -177.169 -571.884)"/><path d="M325.878 728.643 418.494 833.585 494.221 833.585 401.606 728.643Z" fill="#DBDCDC" transform="matrix(1 0 0 1.00113 -177.169 -571.884)"/><path d="M325.878 728.642 418.494 833.585 297.757 833.584Z" fill="#231815" transform="matrix(1 0 0 1.00113 -177.169 -571.884)"/><path d="M354.995 619.977 475.735 619.977 325.878 728.642Z" fill="#231815" transform="matrix(1 0 0 1.00113 -177.169 -571.884)"/></g></g></g></g></svg>