<svg width="1083" height="363" xmlns="http://www.w3.org/2000/svg" xmlns:xlink="http://www.w3.org/1999/xlink" overflow="hidden"><defs><clipPath id="clip0"><rect x="0" y="0" width="1083" height="363"/></clipPath></defs><g clip-path="url(#clip0)"><rect x="0" y="0" width="1083" height="363.279"/><g><g><g><path d="M38.5328 354.957C21.66 354.957 7.84783 341.145 7.84783 324.272L7.84783 36.7278C7.84783 19.855 21.66 6.04283 38.5328 6.04283L1044.47 6.04283C1061.34 6.04283 1075.15 19.855 1075.15 36.7278L1075.15 324.194C1075.15 341.066 1061.34 354.879 1044.47 354.879L38.5328 354.879Z" stroke="#231815" stroke-width="8.59965" stroke-miterlimit="10" fill="#FFFFFF" transform="matrix(1 0 0 1.00077 0 1.00077)"/><path d="M219.582 176.105 204.514 176.105 204.514 95.7435C204.514 89.3867 204.907 81.6174 205.77 72.4354L205.378 72.4354C203.887 77.8504 202.631 81.6959 201.454 84.0502L157.113 176.105 149.737 176.105 105.553 84.678C104.298 82.0098 102.963 77.9289 101.629 72.357L101.237 72.357C101.708 77.1441 101.943 84.992 101.943 95.822L101.943 176.027 87.2678 176.027 87.2678 56.2689 107.358 56.2689 147.147 139.848C150.207 146.283 152.169 151.071 153.111 154.21L153.66 154.21C156.25 147.618 158.291 142.752 159.939 139.534L200.512 56.2689 219.504 56.2689 219.504 176.105Z" fill="#231815" transform="matrix(1 0 0 1.00077 0 1.00077)"/><path d="M294.607 175.32C291.076 177.125 286.524 177.989 280.795 177.989 264.55 177.989 256.467 169.67 256.467 152.954L256.467 102.336 240.536 102.336 240.536 90.6424 256.467 90.6424 256.467 69.6887 271.299 65.2939 271.299 90.6424 294.607 90.6424 294.607 102.336 271.299 102.336 271.299 150.521C271.299 156.25 272.32 160.331 274.438 162.842 276.557 165.275 280.01 166.531 284.955 166.531 288.722 166.531 291.939 165.589 294.607 163.706L294.607 175.32Z" fill="#231815" transform="matrix(1 0 0 1.00077 0 1.00077)"/><path d="M319.563 177.989C316.817 177.989 314.462 177.047 312.5 175.242 310.538 173.437 309.518 171.24 309.518 168.65 309.518 166.06 310.46 163.863 312.5 161.979 314.462 160.096 316.817 159.154 319.563 159.154 322.389 159.154 324.822 160.096 326.783 161.979 328.745 163.863 329.766 166.06 329.766 168.65 329.766 171.24 328.745 173.437 326.783 175.242 324.822 177.047 322.389 177.989 319.563 177.989Z" fill="#231815" transform="matrix(1 0 0 1.00077 0 1.00077)"/><path d="M451.485 53.0513 407.616 53.0513 407.616 178.617 389.802 178.617 389.802 53.0513 346.089 53.0513 346.089 38.1404 451.485 38.1404 451.485 53.0513Z" fill="#231815" transform="matrix(1 0 0 1.00077 0 1.00077)"/><path d="M592.982 178.538 573.284 178.538 557.196 139.142 492.765 139.142 477.619 178.538 457.842 178.538 516.151 38.1404 534.594 38.1404 592.982 178.538ZM551.31 124.388 527.452 64.5876C526.668 62.6257 525.883 59.4865 525.098 55.1702L524.706 55.1702C523.999 59.1726 523.215 62.3117 522.273 64.5876L498.651 124.388 551.31 124.388Z" fill="#231815" transform="matrix(1 0 0 1.00077 0 1.00077)"/><path d="M721.058 178.538 696.259 178.538 637.557 114.264C635.36 111.832 634.026 110.183 633.555 109.399L633.163 109.399 633.163 178.538 615.27 178.538 615.27 38.1404 633.084 38.1404 633.084 104.141 633.477 104.141C634.497 102.728 635.831 101.08 637.479 99.3535L694.297 38.1404 716.428 38.1404 651.291 105.475 721.058 178.538Z" fill="#231815" transform="matrix(1 0 0 1.00077 0 1.00077)"/><path d="M858.788 178.538 839.09 178.538 823.002 139.142 758.571 139.142 743.425 178.538 723.57 178.538 781.879 38.1404 800.321 38.1404 858.788 178.538ZM817.116 124.388 793.258 64.5876C792.474 62.6257 791.689 59.4865 790.904 55.1702L790.512 55.1702C789.805 59.1726 789.02 62.3117 788.079 64.5876L764.457 124.388 817.116 124.388Z" fill="#231815" transform="matrix(1 0 0 1.00077 0 1.00077)"/><path d="M942.367 180.892C920.785 180.892 903.599 174.3 890.571 161.194 877.622 148.088 871.109 130.98 871.109 109.948 871.109 87.3463 877.701 69.3748 890.885 55.8765 904.07 42.4567 922.041 35.7076 944.8 35.7076 965.753 35.7076 982.705 42.2213 995.497 55.3272 1008.29 68.3546 1014.72 85.4628 1014.72 106.573 1014.72 129.489 1008.13 147.618 995.026 160.959 981.998 174.3 964.419 180.892 942.367 180.892ZM943.623 50.697C927.692 50.697 914.664 56.0335 904.776 66.628 894.809 77.3011 889.865 91.2702 889.865 108.535 889.865 125.801 894.731 139.77 904.462 150.286 914.193 160.802 926.828 166.06 942.445 166.06 959.083 166.06 972.267 161.037 981.841 150.992 991.416 140.947 996.281 126.899 996.281 108.771 996.281 90.25 991.651 75.8885 982.312 65.7648 972.895 55.7196 960.025 50.697 943.623 50.697Z" fill="#231815" transform="matrix(1 0 0 1.00077 0 1.00077)"/><path d="M1075.15 324.272 1075.15 313.992 1049.02 300.258C1030.58 289.428 1011.82 278.99 993.064 268.71 977.918 260.391 962.457 253.014 947.154 245.245 928.712 235.827 911.368 223.428 893.396 213.539 877.387 204.671 863.025 188.74 842.935 190.074 821.432 191.565 803.303 211.342 786.509 222.957 781.957 226.096 777.72 229.47 773.246 232.296 770.186 234.179 766.105 236.377 762.652 237.161 756.216 238.652 749.703 231.118 744.837 227.979 740.992 225.547 736.44 223.663 732.438 221.466 725.139 217.385 714.309 211.185 706.618 216.286 700.34 220.524 693.355 224.919 687.627 230.02 682.682 234.415 676.326 241.007 669.655 242.184 662.906 243.361 655.921 240.693 650.349 237.475 642.423 232.923 636.694 225.154 627.12 224.212 615.74 223.114 604.596 227.744 594.551 232.531 539.303 258.664 483.348 281.266 427.393 305.673 389.017 322.467 348.993 333.925 308.812 345.854 299.395 348.679 287.466 348.679 280.324 354.565 282.679 354.879 285.19 354.879 287.623 355.114L376.774 355.114 558.137 355.114 949.038 355.114 951 355.114 1044.31 355.114C1061.34 354.957 1075.15 341.145 1075.15 324.272Z" fill="#8AC124" transform="matrix(1 0 0 1.00077 0 1.00077)"/><path d="M38.5328 354.957C21.66 354.957 7.84783 341.145 7.84783 324.272L7.84783 36.7278C7.84783 19.855 21.66 6.04283 38.5328 6.04283L1044.47 6.04283C1061.34 6.04283 1075.15 19.855 1075.15 36.7278L1075.15 324.194C1075.15 341.066 1061.34 354.879 1044.47 354.879L38.5328 354.879Z" stroke="#231815" stroke-width="8.59965" stroke-miterlimit="10" fill="none" transform="matrix(1 0 0 1.00077 0 1.00077)"/></g></g></g></g></svg>