<svg width="1083" height="363" xmlns="http://www.w3.org/2000/svg" xmlns:xlink="http://www.w3.org/1999/xlink" overflow="hidden"><defs><clipPath id="clip0"><rect x="0" y="0" width="1083" height="363"/></clipPath></defs><g clip-path="url(#clip0)"><rect x="0" y="0" width="1083" height="363.279"/><path d="M170.195 154.703C170.195 162.064 170.195 169.426 170.195 176.788 174.888 176.788 179.581 176.788 184.274 176.788 184.274 169.426 184.274 162.064 184.274 154.703 179.581 154.703 174.888 154.703 170.195 154.703ZM148.677 154.703C148.677 162.064 148.677 169.426 148.677 176.788 153.554 176.788 158.43 176.788 163.306 176.788 163.306 169.426 163.306 162.064 163.306 154.703 158.43 154.703 153.554 154.703 148.677 154.703ZM32.4514 141.387C32.4514 148.893 32.4514 156.399 32.4514 163.905 41.5545 163.905 50.6575 163.905 59.7606 163.905 59.7606 156.399 59.7606 148.893 59.7606 141.387 50.6575 141.387 41.5545 141.387 32.4514 141.387ZM25.1624 130.02C39.1747 130.02 53.1871 130.02 67.1994 130.02 67.1994 145.248 67.1994 160.477 67.1994 175.705 55.6168 175.705 44.0341 175.705 32.4514 175.705 32.4514 177.509 32.4514 179.314 32.4514 181.118 30.0218 181.118 27.5921 181.118 25.1624 181.118 25.1624 164.085 25.1624 147.052 25.1624 130.02ZM170.195 121.9C170.195 128.973 170.195 136.046 170.195 143.119 174.888 143.119 179.581 143.119 184.274 143.119 184.274 136.046 184.274 128.973 184.274 121.9 179.581 121.9 174.888 121.9 170.195 121.9ZM148.677 121.9C148.677 128.973 148.677 136.046 148.677 143.119 153.554 143.119 158.43 143.119 163.306 143.119 163.306 136.046 163.306 128.973 163.306 121.9 158.43 121.9 153.554 121.9 148.677 121.9ZM141.488 110.1C158.18 110.1 174.872 110.1 191.563 110.1 191.563 138.753 191.563 167.405 191.563 196.058 189.134 196.058 186.704 196.058 184.274 196.058 184.274 193.712 184.274 191.367 184.274 189.021 172.409 189.021 160.543 189.021 148.677 189.021 148.677 191.367 148.677 193.712 148.677 196.058 146.281 196.058 143.885 196.058 141.488 196.058 141.488 167.405 141.488 138.753 141.488 110.1ZM3.99404 101.764C32.2185 101.764 60.4429 101.764 88.6673 101.764 88.6673 127.927 88.6673 154.089 88.6673 180.252 88.6673 184.871 87.8935 188.552 86.3458 191.294 84.7981 194.037 82.7928 195.408 80.3298 195.408 76.4689 195.408 72.608 195.408 68.7471 195.408 68.3977 190.645 68.0482 185.882 67.6987 181.118 70.7275 181.118 73.7563 181.118 76.7851 181.118 79.4145 181.118 80.7292 178.7 80.7292 173.865 80.7292 153.981 80.7292 134.097 80.7292 114.214 57.7969 114.214 34.8645 114.214 11.9322 114.214 11.9322 141.712 11.9322 169.21 11.9322 196.707 9.28612 196.707 6.64008 196.707 3.99404 196.707 3.99404 165.06 3.99404 133.412 3.99404 101.764ZM336.946 101.331C336.946 106.744 336.946 112.157 336.946 117.57 341.04 117.57 345.133 117.57 349.227 117.57 349.227 112.157 349.227 106.744 349.227 101.331 345.133 101.331 341.04 101.331 336.946 101.331ZM317.625 101.331C317.625 106.744 317.625 112.157 317.625 117.57 321.702 117.57 325.779 117.57 329.856 117.57 329.856 112.157 329.856 106.744 329.856 101.331 325.779 101.331 321.702 101.331 317.625 101.331ZM265.852 75.5651C270.146 84.3702 275.796 94.5286 282.802 106.04 289.808 117.552 295.491 126.014 299.851 131.427 298.104 135.577 296.356 139.727 294.609 143.877 291.68 140.34 286.721 132.726 279.731 121.034 272.742 109.342 266.335 97.3614 260.51 85.0919 262.291 81.9163 264.071 78.7407 265.852 75.5651ZM336.946 74.3743C336.946 79.7872 336.946 85.2002 336.946 90.6132 341.04 90.6132 345.133 90.6132 349.227 90.6132 349.227 85.2002 349.227 79.7872 349.227 74.3743 345.133 74.3743 341.04 74.3743 336.946 74.3743ZM317.625 74.3743C317.625 79.7872 317.625 85.2002 317.625 90.6132 321.702 90.6132 325.779 90.6132 329.856 90.6132 329.856 85.2002 329.856 79.7872 329.856 74.3743 325.779 74.3743 321.702 74.3743 317.625 74.3743ZM21.0685 55.4289C21.0685 61.744 21.0685 68.0591 21.0685 74.3743 38.1096 74.3743 55.1508 74.3743 72.192 74.3743 72.192 68.0591 72.192 61.744 72.192 55.4289 55.1508 55.4289 38.1096 55.4289 21.0685 55.4289ZM13.5797 44.2781C35.5801 44.2781 57.5805 44.2781 79.5809 44.2781 79.5809 58.0271 79.5809 71.776 79.5809 85.525 57.5805 85.525 35.5801 85.525 13.5797 85.525 13.5797 71.776 13.5797 58.0271 13.5797 44.2781ZM526.262 40.2725C528.958 40.4169 531.654 40.5612 534.35 40.7056 534.117 60.1923 532.32 83.5402 528.958 110.749 533.518 102.594 539.567 95.8638 547.106 90.559 554.645 85.2543 561.676 82.602 568.2 82.602 577.852 82.602 585.357 87.0045 590.716 95.8096 596.075 104.615 598.754 117.353 598.754 134.025 598.754 152.502 594.385 166.882 585.648 177.167 576.912 187.451 561.526 192.594 539.493 192.594 538.744 192.594 537.995 192.594 537.246 192.594 536.896 187.65 536.547 182.706 536.198 177.762 557.565 177.185 571.961 173.125 579.383 165.583 586.805 158.041 590.516 147.522 590.516 134.025 590.516 122.117 588.577 112.933 584.7 106.473 580.822 100.014 575.605 96.784 569.048 96.784 561.193 96.784 553.081 100.519 544.71 107.989 536.339 115.459 529.957 124.968 525.563 136.515 523.383 133.773 521.203 131.03 519.023 128.287 523.35 104.182 525.763 74.8434 526.262 40.2725ZM483.127 27.3896C487.72 37.566 492.105 51.1887 496.282 68.2576 500.459 85.3265 503.33 101.259 504.894 116.054 502.315 117.534 499.735 119.013 497.156 120.493 492.596 84.3341 485.973 56.1867 477.286 36.0504 479.233 33.1635 481.18 30.2766 483.127 27.3896ZM205.542 14.2902C235.93 14.2902 266.318 14.2902 296.706 14.2902 296.706 18.7289 296.706 23.1675 296.706 27.6062 284.591 27.6062 272.476 27.6062 260.36 27.6062 257.198 38.793 253.72 49.7272 249.926 60.4088 251.79 60.4088 253.654 60.4088 255.518 60.4088 255.518 106.239 255.518 152.068 255.518 197.898 252.805 197.898 250.092 197.898 247.38 197.898 247.38 154.378 247.38 110.858 247.38 67.3374 242.354 81.0503 236.08 94.4925 228.558 107.664 221.036 120.836 213.747 131.788 206.691 140.521 205.226 136.732 203.762 132.943 202.297 129.154 213.647 114.647 223.54 98.2635 231.978 80.0037 240.415 61.744 246.831 44.2781 251.224 27.6062 235.997 27.6062 220.77 27.6062 205.542 27.6062 205.542 23.1675 205.542 18.7289 205.542 14.2902ZM536.896 9.20205C549.012 13.6046 559.895 18.6928 569.548 24.4666 579.2 30.2405 585.84 34.6791 589.468 37.7826 588.17 42.5099 586.872 47.2372 585.574 51.9645 583.144 49.5107 579.491 46.6418 574.615 43.3579 569.739 40.074 564.63 36.8984 559.288 33.8311 553.946 30.7637 545.733 27.137 534.65 22.951 535.399 18.368 536.148 13.785 536.896 9.20205ZM431.504 8.98553C434.2 8.98553 436.896 8.98553 439.592 8.98553 439.592 15.4811 439.592 21.9767 439.592 28.4722 439.592 34.9678 439.426 42.3655 439.093 50.6654 445.483 50.6654 451.874 50.6654 458.264 50.6654 462.99 50.6654 466.693 54.3282 469.372 61.6538 472.052 68.9793 473.408 78.5603 473.441 90.3967 473.408 119.555 471.977 143.678 469.148 162.768 466.319 181.858 461.359 191.403 454.27 191.403 450.143 191.403 444.352 187.145 436.896 178.628 437.728 174.045 438.56 169.462 439.392 164.879 441.123 166.684 443.603 168.74 446.831 171.05 450.06 173.359 452.273 174.514 453.471 174.514 456.134 174.514 458.272 171.501 459.887 165.475 461.501 159.448 462.849 150.661 463.931 139.113 465.012 127.566 465.553 113.781 465.553 97.7583 465.553 83.468 464.671 74.4103 462.907 70.5852 461.143 66.76 458.78 64.8474 455.818 64.8474 450.026 64.8474 444.235 64.8474 438.444 64.8474 437.112 83.2515 435.665 99.0213 434.1 112.157 432.536 125.292 430.065 139.077 426.686 153.512 423.308 167.947 419.223 180.974 414.43 192.594 412.549 189.635 410.669 186.675 408.788 183.716 413.148 172.602 417.467 157.139 421.744 137.327 426.021 117.516 428.891 94.1136 430.356 67.1209 423.849 67.1209 417.342 67.1209 410.835 67.1209 410.835 62.2853 410.835 57.4497 410.835 52.6141 417.608 52.6141 424.382 52.6141 431.155 52.6141 431.388 47.562 431.504 33.0191 431.504 8.98553ZM351.324 2.923C352.19 7.00078 353.055 11.0786 353.92 15.1563 350.226 16.8163 344.634 18.4763 337.145 20.1363 337.145 25.4771 337.145 30.8179 337.145 36.1587 344.068 36.1587 350.991 36.1587 357.914 36.1587 357.914 40.2364 357.914 44.3142 357.914 48.392 350.991 48.392 344.068 48.392 337.145 48.392 337.145 53.1915 337.145 57.991 337.145 62.7905 343.469 62.7905 349.793 62.7905 356.117 62.7905 356.117 84.8754 356.117 106.96 356.117 129.045 349.793 129.045 343.469 129.045 337.145 129.045 337.145 134.494 337.145 139.943 337.145 145.392 343.919 145.392 350.692 145.392 357.465 145.392 357.465 149.542 357.465 153.692 357.465 157.842 350.692 157.842 343.919 157.842 337.145 157.842 337.145 163.436 337.145 169.029 337.145 174.623 345.866 172.53 351.524 171.014 354.12 170.076 354.12 174.117 354.12 178.159 354.12 182.201 348.761 185.521 333.268 189.743 307.64 194.867 307.14 190.356 306.641 185.845 306.142 181.335 310.402 180.757 318.224 179.133 329.607 176.463 329.607 170.256 329.607 164.049 329.607 157.842 322.451 157.842 315.295 157.842 308.139 157.842 308.139 153.692 308.139 149.542 308.139 145.392 315.295 145.392 322.451 145.392 329.607 145.392 329.607 139.943 329.607 134.494 329.607 129.045 323.349 129.045 317.092 129.045 310.835 129.045 310.835 106.96 310.835 84.8754 310.835 62.7905 317.092 62.7905 323.349 62.7905 329.607 62.7905 329.607 57.991 329.607 53.1915 329.607 48.392 322.417 48.392 315.228 48.392 308.039 48.392 308.039 44.3142 308.039 40.2364 308.039 36.1587 315.228 36.1587 322.417 36.1587 329.607 36.1587 329.607 31.3231 329.607 26.4875 329.607 21.6519 322.517 22.8788 316.759 23.4923 312.333 23.4923 312.05 23.4923 311.767 23.4923 311.484 23.4923 311.201 19.5589 310.918 15.6254 310.635 11.692 326.844 10.8259 340.407 7.90294 351.324 2.923ZM371.045 1.73215C373.607 1.73215 376.17 1.73215 378.733 1.73215 378.733 17.2854 378.733 32.8387 378.733 48.392 384.857 48.392 390.981 48.392 397.106 48.392 397.106 51.1706 397.106 53.9493 397.106 56.728 397.106 73.833 397.106 90.938 397.106 108.043 396.973 124.715 396.665 139.402 396.182 152.105 395.699 164.807 395.125 173.612 394.46 178.52 394.093 181.118 393.536 183.464 392.787 185.557 392.038 187.65 391.115 189.436 390.016 190.916 388.918 192.395 387.72 193.424 386.422 194.001 385.556 194.362 381.046 194.578 372.892 194.651 372.626 189.743 372.359 184.835 372.093 179.927 374.722 179.927 377.352 179.927 379.981 179.927 382.544 179.927 384.425 178.664 385.623 176.138 386.821 173.612 387.745 167.062 388.394 156.489 389.043 145.916 389.367 128.432 389.367 104.037 389.334 89.8554 389.301 75.6734 389.267 61.4914 385.756 61.4914 382.245 61.4914 378.733 61.4914 378.5 92.2371 376.445 119.212 372.567 142.415 368.69 165.619 363.24 184.005 356.217 197.574 354.586 194.651 352.955 191.728 351.324 188.805 356.916 177.906 361.576 161.505 365.303 139.601 369.031 117.696 370.945 91.6597 371.045 61.4914 367.883 61.4914 364.721 61.4914 361.559 61.4914 361.559 57.1249 361.559 52.7584 361.559 48.392 364.721 48.392 367.883 48.392 371.045 48.392 371.045 32.8387 371.045 17.2854 371.045 1.73215ZM186.77 1.73215C187.919 5.73775 189.067 9.74335 190.215 13.749 185.722 15.9141 179.149 17.935 170.495 19.8115 170.495 29.4827 170.495 39.1538 170.495 48.825 173.407 48.825 176.319 48.825 179.232 48.825 180.73 42.546 182.51 34.643 184.574 25.1162 186.754 26.2349 188.934 27.3536 191.114 28.4722 189.882 33.3078 188.019 40.0921 185.522 48.825 188.718 48.825 191.913 48.825 195.108 48.825 195.108 52.7584 195.108 56.6919 195.108 60.6253 187.669 60.6253 180.23 60.6253 172.791 60.6253 176.086 67.5539 180.347 74.3743 185.572 81.0863 190.798 87.7984 195.391 92.5619 199.352 95.3766 198.253 99.2378 197.155 103.099 196.057 106.96 186.105 98.3718 177.518 86.5715 170.295 71.5595 170.295 81.772 170.295 91.9845 170.295 102.197 168.065 102.197 165.835 102.197 163.605 102.197 163.605 92.201 163.605 82.205 163.605 72.2091 155.617 86.9324 146.963 97.9026 137.644 105.12 136.878 101.872 136.113 98.6244 135.347 95.3766 145 87.2932 153.504 75.7095 160.859 60.6253 153.637 60.6253 146.414 60.6253 139.192 60.6253 139.192 56.6919 139.192 52.7584 139.192 48.825 142.27 48.825 145.349 48.825 148.428 48.825 147.196 43.0151 145.965 37.2052 144.733 31.3952 146.747 30.2766 148.761 29.1579 150.774 28.0392 152.189 34.9678 153.603 41.8964 155.018 48.825 157.814 48.825 160.61 48.825 163.405 48.825 163.405 39.623 163.405 30.4209 163.405 21.2189 154.619 22.7345 147.313 23.4923 141.488 23.4923 141.106 19.7032 140.723 15.9141 140.34 12.1251 144.9 12.1251 152.439 11.1688 162.956 9.25618 173.474 7.3436 181.412 4.83559 186.77 1.73215ZM114.579 1.29911C116.709 1.29911 118.839 1.29911 120.969 1.29911 120.969 11.9446 120.969 22.5901 120.969 33.2357 125.412 33.2357 129.856 33.2357 134.299 33.2357 134.299 66.9404 134.299 100.645 134.299 134.35 134.299 137.598 133.667 140.214 132.402 142.199 131.137 144.184 129.689 145.176 128.058 145.176 126.527 145.176 124.996 145.176 123.465 145.176 123.182 141.026 122.899 136.876 122.617 132.726 123.632 132.726 124.647 132.726 125.662 132.726 127.526 132.726 128.458 130.994 128.458 127.53 128.458 99.8513 128.458 72.173 128.458 44.4946 125.961 44.4946 123.465 44.4946 120.969 44.4946 120.969 95.6292 120.969 146.764 120.969 197.898 118.839 197.898 116.709 197.898 114.579 197.898 114.579 146.764 114.579 95.6292 114.579 44.4946 112.349 44.4946 110.119 44.4946 107.889 44.4946 107.889 78.8851 107.889 113.275 107.889 147.666 105.941 147.666 103.994 147.666 102.047 147.666 102.047 109.522 102.047 71.3791 102.047 33.2357 106.224 33.2357 110.401 33.2357 114.579 33.2357 114.579 22.5901 114.579 11.9446 114.579 1.29911ZM41.6377-1.58708e-06C44.4502-1.58708e-06 47.2626-1.58708e-06 50.0751-1.58708e-06 50.0751 5.12428 50.0751 10.2486 50.0751 15.3728 64.1207 15.3728 78.1664 15.3728 92.212 15.3728 92.212 19.595 92.212 23.8171 92.212 28.0392 61.4747 28.0392 30.7374 28.0392 2.25819e-05 28.0392 2.25819e-05 23.8171 2.25819e-05 19.595 2.25819e-05 15.3728 13.8792 15.3728 27.7585 15.3728 41.6377 15.3728 41.6377 10.2486 41.6377 5.12428 41.6377-1.58708e-06Z" fill="#FFFFFF" fill-rule="evenodd" transform="matrix(1 0 0 1.00077 32.2732 110.578)"/><text fill="#000000" fill-opacity="0" font-family="Arial,Arial_MSFontService,sans-serif" font-size="197.898" x="2.25819e-05" y="173.161">高幡不動から</text><path d="M664.5 40.279C664.5 28.8114 673.789 19.515 685.248 19.515L1042.75 19.515C1054.21 19.515 1063.5 28.8114 1063.5 40.279L1063.5 324C1063.5 335.468 1054.21 344.764 1042.75 344.764L685.248 344.764C673.789 344.764 664.5 335.468 664.5 324Z" stroke="#FFFFFF" stroke-width="16.6615" stroke-miterlimit="8" fill="none" fill-rule="evenodd"/><path d="M42.5359 181.551C42.5359 200.053 42.5359 218.555 42.5359 237.056 71.1003 237.056 99.6647 237.056 128.229 237.056 128.229 218.555 128.229 200.053 128.229 181.551 99.6647 181.551 71.1003 181.551 42.5359 181.551ZM240.918 171.432C273.745 171.432 306.572 171.432 339.399 171.432 339.399 177.311 339.399 183.189 339.399 189.067 326.286 189.067 313.173 189.067 300.06 189.067 300.06 207.28 300.06 225.493 300.06 243.706 300.06 250.258 298.402 255.655 295.087 259.895 291.772 264.135 287.746 266.255 283.01 266.255 275.403 266.255 267.795 266.255 260.188 266.255 259.626 259.75 259.063 253.246 258.501 246.741 265.131 246.741 271.762 246.741 278.392 246.741 280.287 246.741 281.989 245.753 283.498 243.778 285.008 241.802 285.763 239.273 285.763 236.189 285.763 220.482 285.763 204.774 285.763 189.067 270.815 189.067 255.866 189.067 240.918 189.067 240.918 183.189 240.918 177.311 240.918 171.432ZM229.019 131.393C269.897 131.393 310.775 131.393 351.653 131.393 351.653 145.462 351.653 159.531 351.653 173.6 347.628 173.6 343.602 173.6 339.576 173.6 339.576 165.072 339.576 156.544 339.576 148.016 306.631 148.016 273.686 148.016 240.74 148.016 240.74 156.544 240.74 165.072 240.74 173.6 236.833 173.6 232.926 173.6 229.019 173.6 229.019 159.531 229.019 145.462 229.019 131.393ZM87.2029 124.744C73.2907 139.777 55.5601 152.834 34.0109 163.916 70.0347 163.916 106.058 163.916 142.082 163.916 121.066 153.508 102.773 140.451 87.2029 124.744ZM254.238 72.1287C254.238 80.4161 254.238 88.7034 254.238 96.9908 278.037 96.9908 301.836 96.9908 325.635 96.9908 325.635 88.7034 325.635 80.4161 325.635 72.1287 301.836 72.1287 278.037 72.1287 254.238 72.1287ZM241.096 57.9632C273.686 57.9632 306.276 57.9632 338.866 57.9632 338.866 75.7906 338.866 93.618 338.866 111.445 306.276 111.445 273.686 111.445 241.096 111.445 241.096 93.618 241.096 75.7906 241.096 57.9632ZM117.04 46.8331C96.1127 46.8813 75.1851 46.9294 54.2576 46.9776 60.2961 65.576 71.0707 83.4997 86.5813 100.749 100.553 83.6925 110.706 65.7205 117.04 46.8331ZM214.899 3.32454C219.428 4.52909 223.957 5.73365 228.486 6.9382 224.993 31.993 219.043 58.975 210.637 87.8843 212.265 87.8843 213.893 87.8843 215.521 87.8843 215.521 147.678 215.521 207.473 215.521 267.267 211.11 267.267 206.7 267.267 202.289 267.267 202.289 216.386 202.289 165.506 202.289 114.625 196.073 133.513 190.627 148.064 185.95 158.279 183.049 154.135 180.148 149.991 177.247 145.848 185.121 127.249 192.551 104.628 199.537 77.9829 206.522 51.3381 211.643 26.452 214.899 3.32454ZM283.72 0.867245C288.368 0.867245 293.015 0.867245 297.662 0.867245 297.662 7.80548 297.662 14.7437 297.662 21.682 315.955 21.682 334.248 21.682 352.541 21.682 352.541 27.3193 352.541 32.9566 352.541 38.5939 312.67 38.5939 272.798 38.5939 232.926 38.5939 232.926 32.9566 232.926 27.3193 232.926 21.682 249.857 21.682 266.789 21.682 283.72 21.682 283.72 14.7437 283.72 7.80548 283.72 0.867245ZM57.5433-3.44031e-05C62.3682 1.63816 67.193 3.27636 72.0179 4.91455 70.1235 11.371 66.9858 19.4174 62.605 29.0538 85.5749 29.0538 108.545 29.0538 131.515 29.0538 133.202 32.0411 134.889 35.0284 136.576 38.0157 129.472 62.685 116.626 87.258 98.0367 111.735 98.1255 111.831 98.2143 111.927 98.3031 112.024 123.404 132.838 147.351 146.811 170.143 153.942 168.042 160.399 165.94 166.855 163.839 173.311 156.32 170.517 149.127 167.433 142.26 164.06 142.26 197.933 142.26 231.805 142.26 265.677 137.583 265.677 132.906 265.677 128.229 265.677 128.229 262.063 128.229 258.449 128.229 254.836 99.6647 254.836 71.1003 254.836 42.5359 254.836 42.5359 258.449 42.5359 262.063 42.5359 265.677 37.9478 265.677 33.3597 265.677 28.7716 265.677 28.7716 232.624 28.7716 199.571 28.7716 166.518 21.4307 170.083 13.261 173.649 4.26247 177.214 2.84165 171.48 1.42082 165.747 3.13439e-06 160.013 27.9428 150.666 53.3104 134.814 76.1028 112.457 63.3746 96.9426 53.4584 80.127 46.3543 62.0105 36.7638 79.067 25.7228 94.5335 13.2314 108.41 10.8634 103.881 8.49533 99.3517 6.1273 94.8226 30.9917 64.5641 48.1303 32.9566 57.5433-3.44031e-05Z" fill="#FFFFFF" fill-rule="evenodd" transform="matrix(1 0 0 1.00077 687.93 41.1564)"/><text fill="#000000" fill-opacity="0" font-family="Arial,Arial_MSFontService,sans-serif" font-size="267.267" x="3.13439e-06" y="233.858">各停</text></g></svg>