<svg width="1083" height="363" xmlns="http://www.w3.org/2000/svg" xmlns:xlink="http://www.w3.org/1999/xlink" overflow="hidden"><defs><clipPath id="clip0"><rect x="0" y="0" width="1083" height="363"/></clipPath></defs><g clip-path="url(#clip0)"><rect x="0" y="0" width="1083" height="363.279"/><path d="M27.8098 3.53815e-07C31.0858 3.53815e-07 34.7218 0.453357 38.7178 1.36008 38.7178 5.0323 38.7178 8.70452 38.7178 12.3767 38.6098 12.3767 38.5018 12.3767 38.3938 12.3767 35.0818 11.0167 32.1478 10.3366 29.5918 10.3366 24.7319 10.3366 21.2759 11.7647 19.2239 14.6209 17.1719 17.477 16.1459 22.1693 16.1459 28.6977 16.1459 29.4458 16.1459 30.1938 16.1459 30.9418 22.3739 30.9418 28.6018 30.9418 34.8298 30.9418 34.8298 34.206 34.8298 37.4702 34.8298 40.7344 28.7098 40.7344 22.5899 40.7344 16.4699 40.7344 16.4699 63.0851 16.4699 85.4358 16.4699 107.786 13.3019 107.786 10.1339 107.786 6.96596 107.786 6.96596 85.4358 6.96596 63.0851 6.96596 40.7344 4.64397 40.7344 2.32199 40.7344 6.60097e-07 40.7344 6.60097e-07 37.4702 6.60097e-07 34.206 6.60097e-07 30.9418 2.32199 30.9418 4.64397 30.9418 6.96596 30.9418 6.96596 29.9444 6.96596 28.9471 6.96596 27.9497 6.96596 18.9278 8.76595 12.014 12.3659 7.20843 15.9659 2.40281 21.1139 3.53815e-07 27.8098 3.53815e-07Z" fill="#FFFFFF" fill-rule="evenodd" transform="matrix(1 0 0 1.00077 112.996 224.201)"/><text fill="#000000" fill-opacity="0" font-family="Arial,Arial_MSFontService,sans-serif" font-size="107.786" y="94.3131">f</text><path d="M104.15 38.9663C98.2821 38.9663 93.7641 41.5731 90.5961 46.7868 87.4282 52.0004 85.8442 59.5489 85.8442 69.4321 85.8442 79.1794 87.4282 86.6598 90.5961 91.8735 93.7641 97.0871 98.2821 99.6939 104.15 99.6939 110.018 99.6939 114.536 97.0871 117.704 91.8735 120.872 86.6598 122.456 79.1794 122.456 69.4321 122.456 49.1216 116.354 38.9663 104.15 38.9663ZM39.1556 30.9418C42.3236 30.9418 45.4916 30.9418 48.6596 30.9418 48.6596 34.8861 48.6596 38.8303 48.6596 42.7746 56.2915 34.8861 63.3295 30.9418 69.7735 30.9418 72.0415 30.9418 74.3274 31.1685 76.6314 31.6219 76.6314 35.7928 76.6314 39.9637 76.6314 44.1346 76.5054 44.1346 76.3794 44.1346 76.2534 44.1346 73.2654 43.2279 70.2415 42.7746 67.1815 42.7746 61.0615 42.7746 54.8875 46.0387 48.6596 52.5671 48.6596 70.9736 48.6596 89.38 48.6596 107.786 45.4916 107.786 42.3236 107.786 39.1556 107.786 39.1556 82.1716 39.1556 56.5567 39.1556 30.9418ZM171.502 28.7657C179.818 28.7657 185.434 32.9593 188.35 41.3465 196.198 32.9593 203.65 28.7657 210.706 28.7657 223.342 28.7657 229.66 38.4223 229.66 57.7354 229.66 74.4191 229.66 91.1028 229.66 107.786 226.492 107.786 223.324 107.786 220.156 107.786 220.156 93.4376 220.156 79.0887 220.156 64.7399 220.156 56.4434 219.697 50.901 218.779 48.1129 217.861 45.3247 216.457 43.2846 214.567 41.9925 212.677 40.7004 210.292 40.0544 207.412 40.0544 202.48 40.0544 196.666 43.4773 189.97 50.323 190.186 52.6805 190.294 55.6953 190.294 59.3675 190.294 75.5072 190.294 91.6468 190.294 107.786 187.126 107.786 183.958 107.786 180.79 107.786 180.79 93.4376 180.79 79.0887 180.79 64.7399 180.79 56.2167 180.331 50.6063 179.413 47.9089 178.495 45.2114 177.109 43.2279 175.255 41.9585 173.401 40.6891 171.052 40.0544 168.208 40.0544 163.06 40.0544 157.318 43.3639 150.982 49.983 150.982 69.2508 150.982 88.5186 150.982 107.786 147.814 107.786 144.646 107.786 141.478 107.786 141.478 82.1716 141.478 56.5567 141.478 30.9418 144.646 30.9418 147.814 30.9418 150.982 30.9418 150.982 34.0247 150.982 37.1075 150.982 40.1904 158.218 32.5739 165.058 28.7657 171.502 28.7657ZM104.15 28.7657C112.754 28.7657 119.594 32.3926 124.67 39.6464 129.746 46.9001 132.284 56.8287 132.284 69.4321 132.284 82.0356 129.755 91.9301 124.697 99.1159 119.639 106.302 112.79 109.895 104.15 109.895 95.4741 109.895 88.6161 106.279 83.5762 99.0479 78.5362 91.8168 76.0162 81.9449 76.0162 69.4321 76.0162 56.9194 78.5542 47.0135 83.6302 39.7144 88.7061 32.4153 95.5461 28.7657 104.15 28.7657Z" fill="#FFFFFF" fill-rule="evenodd" transform="matrix(1 0 0 1.00077 112.996 224.201)"/><text fill="#000000" fill-opacity="0" font-family="Arial,Arial_MSFontService,sans-serif" font-size="81.1288" x="39.1556" y="99.7534">rom</text><path d="M704.317 67.188C690.889 67.9587 682.258 69.8288 678.424 72.7983 674.59 75.7678 672.673 79.8594 672.673 85.0731 672.673 94.2763 677.101 98.8779 685.957 98.8779 691.969 98.8779 698.089 95.7497 704.317 89.4933 704.317 82.0582 704.317 74.6231 704.317 67.188ZM607.162 67.188C593.734 67.9587 585.103 69.8288 581.269 72.7983 577.435 75.7678 575.518 79.8594 575.518 85.0731 575.518 94.2763 579.946 98.8779 588.802 98.8779 594.814 98.8779 600.934 95.7497 607.162 89.4933 607.162 82.0582 607.162 74.6231 607.162 67.188ZM483.134 67.188C469.707 67.9587 461.076 69.8288 457.242 72.7983 453.408 75.7678 451.491 79.8594 451.491 85.0731 451.491 94.2763 455.919 98.8779 464.775 98.8779 470.787 98.8779 476.907 95.7497 483.134 89.4933 483.134 82.0582 483.134 74.6231 483.134 67.188ZM366.342 67.188C352.914 67.9587 344.283 69.8288 340.449 72.7983 336.615 75.7678 334.698 79.8594 334.698 85.0731 334.698 94.2763 339.126 98.8779 347.982 98.8779 353.994 98.8779 360.114 95.7497 366.342 89.4933 366.342 82.0582 366.342 74.6231 366.342 67.188ZM849.053 39.4423C843.077 39.4423 838.415 42.0832 835.067 47.3648 831.719 52.6465 830.045 60.0702 830.045 69.6362 830.045 88.9493 835.535 98.6059 846.515 98.6059 852.671 98.6059 858.503 95.591 864.011 89.5613 864.011 74.3964 864.011 59.2315 864.011 44.0666 858.683 40.9838 853.697 39.4423 849.053 39.4423ZM760.078 30.9418C763.246 30.9418 766.414 30.9418 769.582 30.9418 769.582 45.336 769.582 59.7302 769.582 74.1244 769.582 84.0077 770.635 90.5587 772.741 93.7776 774.847 96.9965 778.276 98.6059 783.028 98.6059 788.644 98.6059 794.638 95.319 801.01 88.7453 801.01 69.4775 801.01 50.2097 801.01 30.9418 804.178 30.9418 807.346 30.9418 810.514 30.9418 810.514 56.5567 810.514 82.1716 810.514 107.786 807.346 107.786 804.178 107.786 801.01 107.786 801.01 104.704 801.01 101.621 801.01 98.5379 793.63 106.109 786.556 109.895 779.788 109.895 773.416 109.895 768.538 107.412 765.154 102.448 761.77 97.4838 760.078 90.3774 760.078 81.1288 760.078 64.3998 760.078 47.6708 760.078 30.9418ZM687.631 29.1057C696.667 29.1057 703.282 31.2252 707.476 35.4641 711.67 39.703 713.767 46.2881 713.767 55.2193 713.767 72.7417 713.767 90.264 713.767 107.786 710.617 107.786 707.467 107.786 704.317 107.786 704.317 104.93 704.317 102.074 704.317 99.2179 699.241 103.842 695.065 106.778 691.789 108.024 688.513 109.271 685.183 109.895 681.799 109.895 676.363 109.895 671.845 107.628 668.245 103.094 664.645 98.5605 662.845 92.8029 662.845 85.8211 662.845 76.8899 665.518 70.1688 670.864 65.6579 676.21 61.147 687.361 58.4608 704.317 57.5994 704.317 56.8287 704.317 56.058 704.317 55.2873 704.317 49.9376 703.057 45.9821 700.537 43.4206 698.017 40.8591 693.589 39.5784 687.253 39.5784 681.673 39.5784 675.463 41.3918 668.623 45.0187 668.479 45.0187 668.335 45.0187 668.191 45.0187 668.191 40.8704 668.191 36.7222 668.191 32.5739 674.923 30.2618 681.403 29.1057 687.631 29.1057ZM590.476 29.1057C599.512 29.1057 606.127 31.2252 610.321 35.4641 614.515 39.703 616.612 46.2881 616.612 55.2193 616.612 72.7417 616.612 90.264 616.612 107.786 613.462 107.786 610.312 107.786 607.162 107.786 607.162 104.93 607.162 102.074 607.162 99.2179 602.086 103.842 597.91 106.778 594.634 108.024 591.358 109.271 588.028 109.895 584.644 109.895 579.208 109.895 574.69 107.628 571.09 103.094 567.49 98.5605 565.69 92.8029 565.69 85.8211 565.69 76.8899 568.363 70.1688 573.709 65.6579 579.055 61.147 590.206 58.4608 607.162 57.5994 607.162 56.8287 607.162 56.058 607.162 55.2873 607.162 49.9376 605.902 45.9821 603.382 43.4206 600.862 40.8591 596.434 39.5784 590.098 39.5784 584.518 39.5784 578.308 41.3918 571.468 45.0187 571.324 45.0187 571.18 45.0187 571.036 45.0187 571.036 40.8704 571.036 36.7222 571.036 32.5739 577.768 30.2618 584.248 29.1057 590.476 29.1057ZM466.449 29.1057C475.485 29.1057 482.1 31.2252 486.294 35.4641 490.487 39.703 492.584 46.2881 492.584 55.2193 492.584 72.7417 492.584 90.264 492.584 107.786 489.434 107.786 486.284 107.786 483.134 107.786 483.134 104.93 483.134 102.074 483.134 99.2179 478.059 103.842 473.883 106.778 470.607 108.024 467.331 109.271 464.001 109.895 460.617 109.895 455.181 109.895 450.663 107.628 447.063 103.094 443.463 98.5605 441.663 92.8029 441.663 85.8211 441.663 76.8899 444.336 70.1688 449.682 65.6579 455.028 61.147 466.179 58.4608 483.134 57.5994 483.134 56.8287 483.134 56.058 483.134 55.2873 483.134 49.9376 481.875 45.9821 479.355 43.4206 476.835 40.8591 472.407 39.5784 466.071 39.5784 460.491 39.5784 454.281 41.3918 447.441 45.0187 447.297 45.0187 447.153 45.0187 447.009 45.0187 447.009 40.8704 447.009 36.7222 447.009 32.5739 453.741 30.2618 460.221 29.1057 466.449 29.1057ZM349.656 29.1057C358.692 29.1057 365.307 31.2252 369.501 35.4641 373.695 39.703 375.792 46.2881 375.792 55.2193 375.792 72.7417 375.792 90.264 375.792 107.786 372.642 107.786 369.492 107.786 366.342 107.786 366.342 104.93 366.342 102.074 366.342 99.2179 361.266 103.842 357.09 106.778 353.814 108.024 350.538 109.271 347.208 109.895 343.824 109.895 338.388 109.895 333.87 107.628 330.27 103.094 326.67 98.5605 324.87 92.8029 324.87 85.8211 324.87 76.8899 327.543 70.1688 332.889 65.6579 338.235 61.147 349.386 58.4608 366.342 57.5994 366.342 56.8287 366.342 56.058 366.342 55.2873 366.342 49.9376 365.082 45.9821 362.562 43.4206 360.042 40.8591 355.614 39.5784 349.278 39.5784 343.698 39.5784 337.488 41.3918 330.648 45.0187 330.504 45.0187 330.36 45.0187 330.216 45.0187 330.216 40.8704 330.216 36.7222 330.216 32.5739 336.948 30.2618 343.428 29.1057 349.656 29.1057ZM630.713 8.84053C633.863 8.84053 637.013 8.84053 640.163 8.84053 640.163 16.2076 640.163 23.5747 640.163 30.9418 647.291 30.9418 654.419 30.9418 661.547 30.9418 661.547 34.206 661.547 37.4702 661.547 40.7344 654.419 40.7344 647.291 40.7344 640.163 40.7344 640.163 52.5898 640.163 64.4452 640.163 76.3005 640.163 84.3704 640.604 89.5953 641.486 91.9755 642.368 94.3556 643.709 96.1011 645.509 97.2118 647.309 98.3225 649.613 98.8779 652.421 98.8779 655.085 98.8779 658.019 98.0618 661.223 96.4297 661.331 96.4297 661.439 96.4297 661.547 96.4297 661.547 100.057 661.547 103.684 661.547 107.31 657.263 108.625 653.267 109.283 649.559 109.283 636.959 109.283 630.659 100.555 630.659 83.101 630.659 68.9788 630.659 54.8566 630.659 40.7344 628.337 40.7344 626.015 40.7344 623.693 40.7344 623.693 37.4702 623.693 34.206 623.693 30.9418 626.033 30.9418 628.373 30.9418 630.713 30.9418 630.713 23.5747 630.713 16.2076 630.713 8.84053ZM268.864 5.30432C291.472 5.30432 314.08 5.30432 336.688 5.30432 336.688 8.97654 336.688 12.6488 336.688 16.321 327.058 16.321 317.428 16.321 307.798 16.321 307.798 46.8095 307.798 77.2979 307.798 107.786 304.45 107.786 301.102 107.786 297.754 107.786 297.754 77.2979 297.754 46.8095 297.754 16.321 288.124 16.321 278.494 16.321 268.864 16.321 268.864 12.6488 268.864 8.97654 268.864 5.30432ZM864.011 0.748045C867.179 0.748045 870.347 0.748045 873.515 0.748045 873.515 36.4275 873.515 72.107 873.515 107.786 870.347 107.786 867.179 107.786 864.011 107.786 864.011 104.953 864.011 102.119 864.011 99.2859 857.063 106.358 850.331 109.895 843.815 109.895 836.615 109.895 830.882 106.336 826.616 99.2179 822.35 92.1002 820.217 82.3756 820.217 70.0442 820.217 57.8488 822.791 47.9202 827.939 40.2584 833.087 32.5966 839.441 28.7657 847.001 28.7657 852.293 28.7657 857.963 30.7832 864.011 34.8181 864.011 23.4614 864.011 12.1047 864.011 0.748045ZM506.253 0.748045C509.421 0.748045 512.589 0.748045 515.757 0.748045 515.757 13.8728 515.757 26.9976 515.757 40.1224 522.885 32.5513 529.959 28.7657 536.979 28.7657 543.279 28.7657 548.139 31.2479 551.559 36.2122 554.979 41.1765 556.689 48.3509 556.689 57.7354 556.689 74.4191 556.689 91.1028 556.689 107.786 553.521 107.786 550.353 107.786 547.185 107.786 547.185 93.4602 547.185 79.134 547.185 64.8079 547.185 54.7886 546.141 48.1582 544.053 44.9167 541.965 41.6751 538.527 40.0544 533.739 40.0544 528.123 40.0544 522.129 43.3412 515.757 49.915 515.757 69.2055 515.757 88.4959 515.757 107.786 512.589 107.786 509.421 107.786 506.253 107.786 506.253 72.107 506.253 36.4275 506.253 0.748045ZM389.461 0.748045C392.629 0.748045 395.797 0.748045 398.965 0.748045 398.965 23.4161 398.965 46.0841 398.965 68.7521 408.487 56.1487 418.009 43.5453 427.53 30.9418 431.49 30.9418 435.45 30.9418 439.41 30.9418 430.158 42.7292 420.907 54.5166 411.655 66.304 421.645 80.1314 431.634 93.9589 441.624 107.786 437.43 107.786 433.236 107.786 429.042 107.786 420.907 96.4751 412.771 85.1637 404.635 73.8524 402.745 76.1419 400.855 78.4313 398.965 80.7208 398.965 89.7427 398.965 98.7645 398.965 107.786 395.797 107.786 392.629 107.786 389.461 107.786 389.461 72.107 389.461 36.4275 389.461 0.748045ZM748.982 3.53815e-07C752.258 3.53815e-07 755.894 0.453357 759.89 1.36008 759.89 5.0323 759.89 8.70452 759.89 12.3767 759.782 12.3767 759.674 12.3767 759.566 12.3767 756.254 11.0167 753.32 10.3366 750.764 10.3366 745.904 10.3366 742.448 11.7647 740.396 14.6209 738.344 17.477 737.318 22.1693 737.318 28.6977 737.318 29.4458 737.318 30.1938 737.318 30.9418 743.546 30.9418 749.774 30.9418 756.002 30.9418 756.002 34.206 756.002 37.4702 756.002 40.7344 749.882 40.7344 743.762 40.7344 737.642 40.7344 737.642 63.0851 737.642 85.4358 737.642 107.786 734.474 107.786 731.306 107.786 728.138 107.786 728.138 85.4358 728.138 63.0851 728.138 40.7344 725.816 40.7344 723.494 40.7344 721.172 40.7344 721.172 37.4702 721.172 34.206 721.172 30.9418 723.494 30.9418 725.816 30.9418 728.138 30.9418 728.138 29.9444 728.138 28.9471 728.138 27.9497 728.138 18.9278 729.938 12.014 733.538 7.20843 737.138 2.40281 742.286 3.53815e-07 748.982 3.53815e-07Z" fill="#FFFFFF" fill-rule="evenodd" transform="matrix(1 0 0 1.00077 112.996 224.201)"/><text fill="#000000" fill-opacity="0" font-family="Arial,Arial_MSFontService,sans-serif" font-size="109.895" x="268.864" y="96.1577">Takahatafud</text><path d="M910.758 38.9663C904.89 38.9663 900.372 41.5731 897.204 46.7868 894.036 52.0004 892.452 59.5489 892.452 69.4321 892.452 79.1794 894.036 86.6598 897.204 91.8735 900.372 97.0871 904.89 99.6939 910.758 99.6939 916.626 99.6939 921.144 97.0871 924.312 91.8735 927.48 86.6598 929.064 79.1794 929.064 69.4321 929.064 49.1216 922.962 38.9663 910.758 38.9663ZM910.758 28.7657C919.362 28.7657 926.202 32.3926 931.278 39.6464 936.354 46.9001 938.892 56.8287 938.892 69.4321 938.892 82.0356 936.363 91.9301 931.305 99.1159 926.247 106.302 919.398 109.895 910.758 109.895 902.082 109.895 895.224 106.279 890.184 99.0479 885.144 91.8168 882.624 81.9449 882.624 69.4321 882.624 56.9194 885.162 47.0135 890.238 39.7144 895.314 32.4153 902.154 28.7657 910.758 28.7657ZM889.374 2.44815C903.63 2.44815 917.886 2.44815 932.142 2.44815 932.142 5.66701 932.142 8.88586 932.142 12.1047 917.886 12.1047 903.63 12.1047 889.374 12.1047 889.374 8.88586 889.374 5.66701 889.374 2.44815Z" fill="#FFFFFF" fill-rule="evenodd" transform="matrix(1 0 0 1.00077 112.996 224.201)"/><text fill="#000000" fill-opacity="0" font-family="Arial,Arial_MSFontService,sans-serif" font-size="107.446" x="882.624" y="96.4638">Å</text><path d="M30.5 45.3024C30.5 39.9037 34.8731 35.5273 40.2676 35.5273L586.732 35.5273C592.127 35.5273 596.5 39.9037 596.5 45.3024L596.5 178.87C596.5 184.268 592.127 188.645 586.732 188.645L40.2676 188.645C34.8731 188.645 30.5 184.268 30.5 178.87Z" stroke="#FFFFFF" stroke-width="13.3292" stroke-miterlimit="8" fill="none" fill-rule="evenodd"/><text fill="#FFFFFF" font-family="Meiryo,Meiryo_MSFontService,sans-serif" font-weight="400" font-size="143" transform="matrix(1 0 0 1.00077 135.294 166)">Loca</text><text fill="#FFFFFF" font-family="Meiryo,Meiryo_MSFontService,sans-serif" font-weight="400" font-size="143" transform="matrix(1 0 0 1.00077 454.363 166)">l</text></g></svg>
